/* XPM */
static char * aasli_xpm[] = {
"64 64 253 2",
"  	c #C1B87F",
". 	c #C9C18D",
"+ 	c #D5D09F",
"@ 	c #E2DCB5",
"# 	c #E6E1BB",
"$ 	c #E8E3BB",
"% 	c #F1F1DB",
"& 	c #D9D3A9",
"* 	c #CBC493",
"= 	c #BDB37B",
"- 	c #B4AD7A",
"; 	c #ADA46A",
"> 	c #96915C",
", 	c #948D5A",
"' 	c #8A8557",
") 	c #89814C",
"! 	c #7D7747",
"~ 	c #746B3C",
"{ 	c #6B6335",
"] 	c #645C31",
"^ 	c #575329",
"/ 	c #48401F",
"( 	c #3C3323",
"_ 	c #32312D",
": 	c #4C4523",
"< 	c #3C2E1A",
"[ 	c #9C964A",
"} 	c #9C9358",
"| 	c #A4995D",
"1 	c #A7A26A",
"2 	c #BCB175",
"3 	c #D4CC9B",
"4 	c #EAE7C8",
"5 	c #E9E5C2",
"6 	c #CCC596",
"7 	c #B7B4A9",
"8 	c #C8C5BB",
"9 	c #CCCBC6",
"0 	c #D6D4C9",
"a 	c #B0AC91",
"b 	c #A69E72",
"c 	c #8E8854",
"d 	c #847C4B",
"e 	c #7C7443",
"f 	c #6C6438",
"g 	c #64592D",
"h 	c #534B24",
"i 	c #948B55",
"j 	c #B9AE72",
"k 	c #D4C697",
"l 	c #DAD9D5",
"m 	c #FCFDFC",
"n 	c #F6FBFD",
"o 	c #9D9864",
"p 	c #8B8451",
"q 	c #7B713E",
"r 	c #9C945C",
"s 	c #B5AC72",
"t 	c #978F6F",
"u 	c #F5F5F2",
"v 	c #F6F9F5",
"w 	c #B6B17B",
"x 	c #BBB582",
"y 	c #ADA975",
"z 	c #81733E",
"A 	c #B5AA6E",
"B 	c #A59D6A",
"C 	c #F4F3EC",
"D 	c #F1EFE8",
"E 	c #F9F9F6",
"F 	c #C3BA84",
"G 	c #C4BD8B",
"H 	c #BDB788",
"I 	c #A1965B",
"J 	c #A49C63",
"K 	c #ACA266",
"L 	c #B2A66A",
"M 	c #F8F7F3",
"N 	c #878786",
"O 	c #000000",
"P 	c #EAE8D7",
"Q 	c #E4E2DB",
"R 	c #B1B0AC",
"S 	c #E2DFDA",
"T 	c #242424",
"U 	c #191512",
"V 	c #0A0A0A",
"W 	c #393939",
"X 	c #787877",
"Y 	c #9B9994",
"Z 	c #C6BE94",
"` 	c #BFC0BF",
" .	c #F5F4E7",
"..	c #53524F",
"+.	c #726638",
"@.	c #686766",
"#.	c #71706C",
"$.	c #EAE9E5",
"%.	c #C7B9A7",
"&.	c #998958",
"*.	c #998D54",
"=.	c #928653",
"-.	c #A49F8C",
";.	c #817645",
">.	c #C2BAB1",
",.	c #827968",
"'.	c #4B341C",
").	c #5B5126",
"!.	c #796E3D",
"~.	c #E1DECB",
"{.	c #726A55",
"].	c #47381B",
"^.	c #53391E",
"/.	c #6A5E32",
"(.	c #584926",
"_.	c #664629",
":.	c #95864D",
"<.	c #9D9562",
"[.	c #795536",
"}.	c #6B572F",
"|.	c #705746",
"1.	c #87573A",
"2.	c #AA734E",
"3.	c #B9845A",
"4.	c #A97653",
"5.	c #95764A",
"6.	c #A78A59",
"7.	c #61552B",
"8.	c #D3CDC3",
"9.	c #C99974",
"0.	c #E2A57B",
"a.	c #E6A886",
"b.	c #F0B58E",
"c.	c #E8B38C",
"d.	c #D59A72",
"e.	c #B3A56A",
"f.	c #D6CDA2",
"g.	c #C59C87",
"h.	c #EAA68A",
"i.	c #EDAB92",
"j.	c #F0AE91",
"k.	c #F2B493",
"l.	c #F3B998",
"m.	c #86683D",
"n.	c #AA955B",
"o.	c #A79D68",
"p.	c #F2ECD8",
"q.	c #D89B82",
"r.	c #F0AC8F",
"s.	c #EDAA8D",
"t.	c #F1C19D",
"u.	c #E7C599",
"v.	c #CDC5AC",
"w.	c #F1CAA4",
"x.	c #CA9365",
"y.	c #DCD7B5",
"z.	c #C8B784",
"A.	c #DBAA84",
"B.	c #C9A678",
"C.	c #B39D68",
"D.	c #C1B57B",
"E.	c #E4D6AB",
"F.	c #C9BE8C",
"G.	c #877A48",
"H.	c #B8AA76",
"I.	c #CFAF90",
"J.	c #C98A76",
"K.	c #E5A384",
"L.	c #DC9B7B",
"M.	c #E8C9A4",
"N.	c #D7B68C",
"O.	c #EABA94",
"P.	c #AA9E63",
"Q.	c #8D5B43",
"R.	c #794C33",
"S.	c #986646",
"T.	c #C47C66",
"U.	c #D68E76",
"V.	c #DB9575",
"W.	c #D2956D",
"X.	c #BB7E5B",
"Y.	c #C58A64",
"Z.	c #A46B4A",
"`.	c #8E694B",
" +	c #73492E",
".+	c #814D33",
"++	c #C78566",
"@+	c #D3896C",
"#+	c #643B25",
"$+	c #925C3B",
"%+	c #B57857",
"&+	c #B47A53",
"*+	c #5C532A",
"=+	c #C6785B",
"-+	c #D49372",
";+	c #493B27",
">+	c #372D21",
",+	c #D29564",
"'+	c #E19C7D",
")+	c #B78D6A",
"!+	c #C4885D",
"~+	c #BA7C62",
"{+	c #96584C",
"]+	c #AE766A",
"^+	c #573C23",
"/+	c #B1764D",
"(+	c #D49A6D",
"_+	c #DB9877",
":+	c #B4695A",
"<+	c #C87C73",
"[+	c #CC8B6B",
"}+	c #D9A378",
"|+	c #CA8C64",
"1+	c #E49E83",
"2+	c #887B55",
"3+	c #EDCDBD",
"4+	c #A86853",
"5+	c #E7B27F",
"6+	c #96623E",
"7+	c #776B44",
"8+	c #713938",
"9+	c #A95559",
"0+	c #ACA471",
"a+	c #433319",
"b+	c #BA6866",
"c+	c #432E19",
"d+	c #CB925E",
"e+	c #655738",
"f+	c #3C2B15",
"g+	c #CE936B",
"h+	c #372919",
"i+	c #352512",
"j+	c #412D16",
"k+	c #433926",
"l+	c #332815",
"m+	c #2A170F",
"n+	c #32240E",
"o+	c #544A33",
"p+	c #D6A06D",
"q+	c #544C35",
"r+	c #B0575E",
"s+	c #A54B55",
"t+	c #4C422D",
"u+	c #B25D62",
"v+	c #944C4E",
"w+	c #843941",
"x+	c #923D48",
"y+	c #8C3D46",
"z+	c #A84D56",
"A+	c #93444C",
"B+	c #634438",
"C+	c #98474C",
"D+	c #572E26",
"  . + + @ # $ $ % & @ & + * = - ; > , ' ' ) ! ! ~ ~ { ] ^ ^ ^ ^ ^ ^ ^ ^ ^ ^ ^ ^ ^ ^ ^ ^ { { ~ { / / ( _ / : : / : : / : : / ( < ",
"[ > } | 1 2   3 4 @ $ $ 5 $ # # 6 7 8 9 0 7 a a b ' c c d e f f ] ] { f { { { g ^ ^ ^ ^ ^ ^ ^ ] ^ : ^ : : ^ : : ^ : ^ ^ ^ h h : ",
"c , c i c [ c j 4 k .   + 6 8 l m m m m m m m m n n 9 a o 1 o > c c p d ) ) d q ~ q { { { ] ^ ^ ^ ^ ^ ^ ^ ^ ^ ^ ^ ] ^ ] { ] ] ] ",
"o r > > c p c s 4 . } t 9 u n m m m m v m m m m n n n n v 8 7 w x x y 1 [ > c c ) d d z e e ~ { { { { e f f f f { f ~ { f ~ ~ ~ ",
"A s A ; ; 1 B x 4 a 9 m m m m m m m m m m n 7 u v C D v v E C 9 y 6 + + F + G H - o o c c c d ! ! ! ! d ! ! ! ! q e ! ~ ~ ! ! ! ",
"} I | J K K L x 8 M v E u m m m m m m m m N O N m m P Q v u R l v a 1 1 ;   w . . G . w H w w 1 1 o > > d d ! ! e ) ) e e ! d d ",
"1 J J J r r ' S M M E u 9 D m C M u u m M R T R m R T U U U O V U T N 1 ; 1 1 o A 1 J J s . . 2 . 6 . H > c > > o > c ! ! c ' ' ",
"J J 1 1 | b v n C M m W O U X u n m M E M E E m m N O O O O O O V V Y Z K K ; ; s K 1 1 K 2 1 K 1 + + G [ 1 y y y y 1 > , y y y ",
"g f d c r ` D m M  .m W O O O ..u m m m m n 9 u E u R R R ..O ..a 7 u m t } I J | | K K L K K K 1       [ 1 1 y s 1 y .   + + + ",
"+.! p d t v v E u C E D 9 N O O @.n n m m Y O #.m C C u $...O X 8 0 %.$.7 &.*.| i i c } } } r } 1 A w 1 A 1 1 A s 1   @ % v  .% ",
"p p =.p 8 v m M D X @.#.R E Y O O N D u u X O ..m P C $.D ..O X -...Y 7 t ;.i i p c ) r c c ' c 1 [ 1 o A y y j A 1 J 1 A w G 6 ",
"=.p J , M Q M m X O O O O #.Q @.O _ $.E m N O _ >.Q Q C m ..O X l R a R ,.'.).!.i c c c p p ) } [ o > 1 A y s w w 1 o J 1 o o > ",
"} ) K -.m u ~.m #.O O V V Y l Y O O >.0 8 X O _ S $.n n n W O N u E u Q {.< ].^./.*.r > , ' ' , > c > [ o 1 1 y w 1 o w G 6 6 H ",
"&., I -.C Q D m #.O O T $.n n 7 O O C E u #.O W l S l S $.T O R u m m u {.(.^._._._.:.} i ) <.r 1 > c > > o o 1 o c o w x H H G ",
"&., ) 7 n E ~.E #.O O O O V O O O W m C 0 ..O @.$.n E u u W O Y S S S >._.[.[.[.+.}.).*.:.+.f ! > > o o > > o o > > 1 y w w w x ",
") ~ ] -.E u Q E @.O W T O O O O T l m C D ..O @.$.E M S $.` X S m D 0 |.1.2.3.3.4.5.}.}.6.| J > > 1 . 6 y 1 o o 1 1 y y 1 1 w w ",
"7.).7.#.m n Q m R ..0 m 9 9 l $.m m E E m l X $.M m m E E u u D E 8.9.0.a.b.b.c.0.d.6.}.:.e.e.j 2 3 @ # @ f.* 5 5 4 @ ~.6 + H H ",
").7./.;.t u Q C u v m m m m m n m E E m m M M n m m m D u M M >.g.h.i.j.k.k.l.b.k.l.c.m.m.n.e.j   5 %  .C  . .% 4 4 5 4 5 P 4 % ",
"}.;.o.A , 8 $.M E m m m m m m m m m E m m C m m m m p.M u 8.q.r.s.j.j.k.k.l.l.l.b.t.u.6.!.6.e.j   5 v n m m n n n n v v C % % % ",
"A Z %.J ~ ^ t v.8.8.0 0 l $.E m m m m E D M m m m m u S g.i.i.i.s.j.j.k.l.l.l.l.b.t.w.x.m.:.e.e.2   k y.5 p.%  .v n n n n n n n ",
"- t f ).).).o.& 5 6 F z.x 8 m m m m m E u M m m m Q %.A.i.r.r.r.s.j.k.k.l.l.k.k.b.w.u.B.5.[ C.e.A D.D.D.. . k 3 + f.& y.5 P % C ",
"e +./.g ] ] b E.5 k F F.* a E m m m m D M $.m S %.q.h.h.h.r.r.r.s.j.k.k.l.l.k.k.b.t.u.B.5.:.e.e.e.e.D.D.  F F . . . G w w - 6 G ",
"&.=.=.) G.G.H.& @ 6 F Z * 6 >.m m m E ~.D P I.J.K.a.h.i.h.r.r.r.s.r.j.j.k.l.l.k.l.t.c.B.6.:.C.e.A A e.j D.D.D.2       = - ; B B ",
"G.) G.) =.p H.& 5 k * * k 3 Z $.m n m Q %.A.q.L.K.a.h.i.i.r.i.r.s.k.j.k.k.l.l.l.b.t.c.B.I *.I I | K K A A A j B.2 = = D.= 2 ; B ",
"/./.}././.!.- y.$ k * k k 3 6 -.u u u u v.M.N.L.L.L.L.K.K.K.h.i.s.h.h.h.c.b.O.l.t.w.t.B.6.n.I I | P.P.e.K e.e.A A j A j j j j L ",
").7.7.7.7./.= @ # k * . j I z g >.C C u 8.@ 9.Q.[._._.R.S.T.U.U.V.V.W.X.S.S.2.Y.A.w.w.B.6.n.I n.n.| K K C.C.e.e.A e.A H.A A H.A ",
").7.7.).).}.x @ # H.=.+.7.(.).h {.$.D E y.O.Z.`.S.Q.[. +.+Z.++U.@+T.S. +_.#+ +[.$+B.w.N.6.n.n.n.| | n.P.P.| K K e.e.e.H.A A H.A ",
").7.7.7.)./.J & # { h h h : : h A.>.C E 8.I.%+%+5.Q._.R..+Z.@+h.0.X..+.+S.4.3.X.3.&+M.N.n.C.K | | P.P.P.K K e.e.A e.A j j D.j 2 ",
").).g 7.*+7.{ f.# g h (.(.(.: m.=+%+M E l -+3..+|.;+>+R..+4.@+s.r.X..+Q.[.;+_.S.3.,+b.u.n.0.c.K P.K e.K e.e.A A j j j 2 j D.D.D.",
").).g }.g g +.& # g ).).).(.(.5.=+'+>.m $.)+!+%+~+`.{+~+%+++-+s.s.,+3.]+`.^+`.4./+(+c.u.9._+:+B.K K e.e.e.j A j j j j = D.2 2 D.",
"7.7.g { g }.+.y.# g ).7.7.h h 4.<+'+3.S E g.-+[+++T.X.~+U.-+_+s.k.'+'+U.T.++[+L.c.c.b.w.}+r.=+B.K K K e.e.A e.j j 2 j D.= D.D.D.",
"~ !.!.!.~ f ~ @ # /.g 7.).(.h 4.@+++~+%.m %.'+-+[+[+q.h.'+V.L.s.l.a.K.K._+++|+d.0.c.l.w.|+s.,+D.K e.e.e.e.j e.D.2 2 2 D.D.D.D.D.",
"! ;.;.e ! e G.@ # e !.~ ~ +./.5.U.@+-+M.9 S q.1+h.s.s.h._+U.V.h.k.s.K.K.s.r.j.j.k.k.l.w.B.++'+z.K K A A s j 2 2 2 2   2 D.D.2 2 ",
"2+p G.2+G.G.p @ @ ;.! ;.;.;.;.2+V.@+)+N.g.n g.h.i.h.1+-+++U.1+h.k.k.'+@+1+h.j.k.l.t.l.t.9.'+s.* L A j j j 2 2 j 2 2   2 D.D.2 2 ",
"r r r <.r J I $ @ &.&., &.&.&.&.'+K.4.B.A.%.9 h.i.1+V.@+V.-+1+h.i.j.j._+@+'+h.j.k.t.O.O.3.1+w.f.A A j s j 2 2 2 2 2 2 2 2 2 D.2 ",
"=.&.i } I J L 5 E.o.K J J J o.| N.L.5.6.A.g.l g.1+U.T.T.~+R.T.@+V.X.Z.-+@+T.U.1+h.l.O.N.6.k.3+& L A j j j w 2 = 2 = 2 D.D.2 j j ",
"B B J <.<.r } 5 & , *.} I | J 1 z.-+5.`.9.U.g.>.~+%+[+++{+1.4+{+S.#+R.=+|+:+%+@+_+5+O.}+/+'+f.A K L j j 2 2 2 = 2 2 2 2 2 j j A ",
"x x x - - - r 5 & f +.+.~ !.q ! G.6.R.}.2.J.-+3.Q.T.~+4+Q.[.R.R.#+R.$+2.=+3.Z.:+|+d.}+n.S.d.F.L K K A A j j 2 2 2 2 j j j j j A ",
"H x w - w w J 5 f./.] ] g 7.g g { &.[.(._.2.[+!+Q.[.m.1.1.1.Q.4+4+S.Z.$+S.S.6+/+@+(+3.m.5.k . ; K K K A A s A j j A A j j j j j ",
"* H H x H G o.# k ~ +.{ { { f f 7+o.z (.'.[.|+|+Q.^+8+{+9+4+:+:+:+:+9+4+Z.R.#+%+W.3.+.R., p.E.j ; K ; K A A j s A j A j j 2 2 j ",
". * Z G G . 0+@ 6 e ~ ~ ~ ~ ~ ~ G.x G.;+a+^.Z.|+Q. +`.:+b+b+<+b+<+<+<+@+T.Z. +|+d.m.^.7.a v P G L K ; K ; A s j A e.j j j A j A ",
"* 6 Z G G * s @ * 7+!.!.!.q !.! i E.H ;+c+'._.4.X.++-+-+U.U.U.q.V.U.1+K.K.-+d+d.Z._.^.(.l m m f.L K K K K e.A A e.A j A j j j A ",
"6 * Z H F . s y.G 7+!.!.!.q e d B C $.e+a+f+c+R.4.g+_+[+4.4+%+%+4+4+&+W.0.V.,+3.[.^.a+^+H % # 2 L K K K ; K A L A A A j j A A A ",
"* Z H H H Z L y.G e !.q q e ;.d J P M 2+].h+i+^+6+%+W.-+~+Z.Q.1.$+6+/+W.0.0.!+1.^+].j+).F E.. L K e.; K e.K K e.e.e.A A A A j j ",
". G H G = . 0+& F q q q e ;.;.d &.3 4 p '.i+f+'.R.S.Y.-+V.-+@+T.|+'+'+(+(+,+6+^+a+a+'.z $ 5 . L K K ; e.L L P.*.[ [ K e.e.e.A A ",
"y.H x x w F 0+f.3 x = - A ; ; I &.3 y.=.k+i+f+'.^+#+1.Z.2.4.4+4+/+!+|+!+6.6+_.].f+f+/.y.% . A K K K K K - j L =.z :.K K e.e.e.A ",
"& x x - - H 0+3 & * k 6 k 3 f.6 *.F.* <.(.h+i+j+;+'.^+(. +R. + +R.1.$+R.R.^.j+j+f+].!.4 # = A K K ; J | s - s i +.:.P.K e.K e.e.",
"1 - - y y H 0+6 f.F.H w G . G * 0+@ y.x (.h+f+f+f+f+i+j+'.^.'.^.^.#+^.^.^.'.f+j+j+].a m m P j K K J | } L H.L p q z K K e.P.K e.",
"} - - y y x 0+* f.O.N.N.A.N.. . y.n M 3 7+< ].< i+h+f+i+f+j+f+j+j+'.j+j+j+j+f+j+].).Z % p.f.D.P.o.J I } s j L :.z ) | K K K K e.",
";.| K ; ; x b F.& u.O.O.u.c.N.. } 8 v.v.e+: ^+< a+< h+i+i+f+j+f+j+j+j+a+f+f+l+j+].+.y.n m % z.K P.| } *.. s K ) z ) [ K K K K e.",
"q [ | ; o.w o.F.M.u.u.u.u.c.N.G } Q H 8 &./.: ].c+h+i+i+i+i+f+m+n+j+n+f+< < a+a+].7+Z Q M 4 z.P.| I } *.} i p G.G.[ | | K K K e.",
"z | 1 B ; - b F.E.O.u.u.O.A.6 0+e+k+( ( 2+`.(.^.< < i+i+i+i+i+i+f+n+f+n+f+f+a+'.^._.7.7.d x D.J | | } *.:.i :.[ | | P.K [ K e.K ",
"i | o B 1 y 0+G E.u.u.u.u.O.' ( l+l+n+[.O.6.}.(.a+j+f+i+h+n+i+m+n+n+f+n+j+j+^. +6+5.f+n+].(.o.J | I } } *.} } I | | P.P.| | [ K ",
"J 1 J J J 1 B F.M.u.u.u.M.g.k+h+n+< S.N.O.}+Y.Z._.^.h+i+i+i+n+n+n+j+j+j+^.^.[.3.}+u.m.i+< o+d r I } r } I I I | K | | | J | K K ",
"J J 1 r J o B G & Z N.N.N.2+>+i+_./+|+}+A.}+(+g+%+S.R.c+j+n+i+i+j+^.#+ +R.m.d+p+5+c.,+/+'.k+7+J | r } | | | | I | | | | P.K [ | ",
"1 *.:.r } 1 b F.& a H H x {.>+'.2.3.d+}+}+p+d.d.x.3.2.S.R._.#+#+#+ +1.1.$+3.,+0.5+5+,+/+^.: G.B J I I | | J | | | | | | | J | | ",
"J G.~ +.;.o.0+F.y.v.H 2+{.{.>+< Z.!+Y.(+}+p+d.d.-+|+X.2.S.$+.+.+.+$+$+1.6+!+p+5+5+}+d+{+( o+! d 7+)+P.| I P.| | I I I | | I I | ",
"J ;./.}.!.J 0+F.g.]+q+q+|.|.( h+1.3.x.(+(+W.d._+d.W.|+X.2.Z.$+$+$+$+$+6+/+d+,+0.}+x.!+^+k+e+7+e+q+|.r+)+0+J | | J I I I | I I | ",
"<.2+|.R.;.I.g.9+s+|.k+k+q+|.k+>+].&+,+W.W.W.(+d.d.d.W.!+%+Z.Z.Z.6+Z.Z./+!+,+p+,+d+x.1.< t+e+e+q+o+o+u+v+u+U.C.P.J J I | I I I I ",
"<.b t ]+]+v+v+v+w+( >+( ;+q+t+( h+`.)+(+-+(+W.d.d.d.W.|+!+%+/+/+Z./+=+!+d+d+d+d+d+2.].t+q+q+q+o+k+( {+r+s+s+b+<+)+C.I I P.I I I ",
")+)+9+v+x+x+x+y+|.h+>+>+( q+k+( >+`.`.++g+d.d.g+W.W.g+|+!+3.&+&+&+&+!+|+d+!+d+d+{+8+;+q+q+q+q+;+: W v+9+z+z+s+r+u+b+J.9.P.I I I ",
"s+A+A+y+x+x+y+y+8+>+>+>+_ t+: q+;+A+w+A+~+9.d.-+g+W.W.|+Y.++X.!+|+|+|+|+!+!+!+{+v+k+l+q+|.;+;+q+t+t+{+s+z+z+z+z+9+9+z+u+<+J.C.I ",
"x+x+x+x+x+x+x+w+B+T >+>+( k+t+q+8+x+8+A+y+{+~+g+g+W.g+x.|+|+|+@+d.-+d.[+=+=+v+8+f+U U n+^+t+;+;+k+8+A+C+z+z+z+9+z+z+s+z+z+r+b+J.",
"x+x+x+x+x+x+y+w+B+>+>+>+( ( t+( A+|.y+A+y+y+A+4+[+W.-+g+[+W.d.L.0.0._+T.{+D+m+m+m+m+m+m+i+D+D+#+8+A+A+s+s+z+z+z+z+z+s+s+s+s+r+u+"};
