/* XPM */
static char *_be3c598bc354000f9cca005073f7b6bNOn42I1dWikTClXp[] = {
/* columns rows colors chars-per-pixel */
"64 64 113 2 ",
"   c None",
".  c #151515",
"X  c #16171A",
"o  c #17181C",
"O  c #1C1C1C",
"+  c #24231D",
"@  c #1F1F20",
"#  c #242424",
"$  c #292926",
"%  c #2A2A29",
"&  c #312F27",
"*  c #3C3926",
"=  c #32322A",
"-  c #38372B",
";  c #3E3C2B",
":  c #313231",
">  c #37383A",
",  c #3C3C3B",
"<  c #413D26",
"1  c #433F29",
"2  c #776E1C",
"3  c #796F1B",
"4  c #7E731C",
"5  c #464024",
"6  c #4A4520",
"7  c #4D4920",
"8  c #534D22",
"9  c #5B5421",
"0  c #484632",
"q  c #655E21",
"w  c #736A21",
"e  c #746B28",
"r  c #434343",
"t  c #4C4C4D",
"y  c #57554F",
"u  c #525252",
"i  c #60605E",
"p  c #747265",
"a  c #777775",
"s  c #7B7B7B",
"d  c #897C1F",
"f  c #9E8D12",
"g  c #9E9013",
"h  c #AF9B0E",
"j  c #B19C0F",
"k  c #A28E14",
"l  c #A49111",
"z  c #B09F14",
"x  c #B2A112",
"c  c #C8AD0C",
"v  c #CDB30D",
"b  c #D0B70D",
"n  c #D3B90C",
"m  c #DBBE09",
"M  c #CDB610",
"N  c #E2C409",
"B  c #E9CB0A",
"V  c #F5D205",
"C  c #FCD704",
"Z  c #FDD903",
"A  c #EFD016",
"S  c #FCD915",
"D  c #F9D826",
"F  c #FADB2C",
"G  c #F3D632",
"H  c #FBDD34",
"J  c #FDDF3A",
"K  c #FDE03C",
"L  c #8E8761",
"P  c #FCDF44",
"I  c #FDE35A",
"U  c #D1C46F",
"Y  c #888784",
"T  c #8A8986",
"R  c #979690",
"E  c #EADA87",
"W  c #E7DB9C",
"Q  c #FDEA81",
"!  c #FDEB88",
"~  c #FDED9B",
"^  c #D6D1B3",
"/  c #D9D2B3",
"(  c #D9D4B9",
")  c #FDEEA0",
"_  c #C6C6C4",
"`  c #CFCFCF",
"'  c #D1D0CD",
"]  c #CFCFD0",
"[  c #D3D3D2",
"{  c gray85",
"}  c #FDF2C0",
"|  c #FCF4CE",
" . c #FCF6D6",
".. c #FCF5D0",
"X. c #EDEDEB",
"o. c #EEEDEB",
"O. c #EEEEEC",
"+. c #FCF8E5",
"@. c #FDF8E5",
"#. c #FEF9E6",
"$. c #F3F1EA",
"%. c #F3F3F2",
"&. c gray97",
"*. c #F8F7F1",
"=. c #FCFAF3",
"-. c #FCFBF4",
";. c #FCFBF5",
":. c #FCFBF6",
">. c #FCFBF7",
",. c #FDFCF7",
"<. c #FBFBFB",
"1. c gray99",
"2. c #FDFDFD",
/* pixels */
"                                                                                                                                ",
"                                                                                                                                ",
"                                                                                                                                ",
"                                                                                                                                ",
"                                                                                                                                ",
"                                                                                                                                ",
"                                                                                                                                ",
"                                                                                                                                ",
"                                                                                                                                ",
"                                              . O o o O O O O X X o o X X X O o                                                 ",
"                                              O % % % % % % % % % % % % % % % % .                                               ",
"                                              O % % # # # # # @ # # # % % % % % .                                               ",
"                                  @ % , , , , % % , _ o.o.o.O.o.o.o._ : % % % % : , , , , %                                     ",
"                                  O % % % % % % % , [ <.1.<.1.1.1.<.' = % % % % % % % % % $ .                                   ",
"                                  $ % % , r r r r y (  . . . . . . .^ 0 ; ; ; ; - % % % % $ .                                   ",
"                            X $ $ % % : ` 1.1.1.1.#.J C C C C C C C Z Z Z Z Z Z f % % % % $ .                                   ",
"                            O % % % % : ` 1.1.1.1.#.J C C C C C C C C C C C C C f % % % % $ .                                   ",
"                            O % % t u u / | | | | } I J J J J J J J G b v N Z C j 8 8 < % $ #                                   ",
"                            O % $ [ &.*.P S S S S H | ,.;.;.,.,.;.;.' - & 4 Z C C V V l % % % : :                               ",
"                            O % $ { 1.;.J C C C C D ..1.1.<.1.1.1.<.` = % 2 Z C C C C l % % % % %                               ",
"                        $ + # % $ { <.;.J C C C C D | 1.#.! Q Q Q Q U = % 2 Z C C C C l % % % % %                               ",
"                      + % % % % $ { <.;.J C C C C D | 1...S C C C C b = % 2 Z C C C C l % % % % %                               ",
"                      + % % % % $ { <.;.J C C C C D | 1.| S C C C C b = % 2 Z C C C C l % % % % %                               ",
"                      + % % i T Y E Q Q D C C C C D | 1...S C C C C b = % 2 Z C C C C v d d q % % % , >                         ",
"                      + % % R 1.1.J C C C C C C C D ..1...S C C C C b = % 2 Z C C C C C C Z k % % % % $                         ",
"                      + % % R 1.1.J C C C C C C C D | 1...S C C C C b = % 2 Z C C C C C C Z k % % % % $                         ",
"                      + % % R 1.<.J C C C C C C C D ..1...S C C C C b = % 2 Z C C C C C C Z k % % % % $                         ",
"                      + % % R 1.1.J C C C C C C C D ..<...S C C C C b = % 2 Z C C C C C C Z k % % % % $                         ",
"                      + % % R 1.1.J C C C C C C C D | 1...S C C C C b = % 2 Z C C C C C C Z k % % % % $                         ",
"                      + % % R 1.1.J C C C C C C C D | 1...S C C C C b = % 2 Z C C C C C C Z k % % % % $                         ",
"                      + % % R 1.1.J C C C C C C C D | 1...S C C C C b = % 2 Z C C C C C C Z k % % % % $                         ",
"                      + % % R 1.1.J C C C C C C C D ..1...S C C C C b = % 2 Z C C C C C C Z k % % % % $                         ",
"                      + % % R 1.1.J C C C C C C C D ..1...S C C C C b = % 2 Z C C C C C C Z k % % % % $                         ",
"                      + % % R 1.1.J C C C C C C C D ..1...S C C C C b = % 2 Z C C C C C C Z k % % % % $                         ",
"                      + % % R 1.1.J C C C C C C C D ..1...S C C C C b = % 2 Z C C C C C C Z k % % % % $                         ",
"                      + % % R 1.1.J C C C C C C C D ..1...S C C C C b = % 2 Z C C C C C C Z k % % % % $                         ",
"                      + % % R 1.1.J C C C C C C C D ..1...S C C C C b = % 2 Z C C C C C C Z k % % % % $                         ",
"                      + % % R 1.1.J C C C C C C C D ..1...S C C C C b = % 2 Z C C C C C C Z k % % % % $                         ",
"                      + % % R 1.1.J C C C C C C C D ..1...S C C C C b = % 2 Z C C C C C C Z k % % % % $                         ",
"                      + % % R 1.1.J C C C C C C C D ..1...S C C C C b = % 2 Z C C C C C C Z k % % % % $                         ",
"                      + % % u s s W ) ~ D C C C C D ..1...S C C C C b = % 2 Z C C C C c 3 3 9 % % > t t                         ",
"                      + % % % % $ { 1.;.K C C C C D ..1...S C C C C b = % 2 Z C C C C l % % % % %                               ",
"                      + $ $ % % $ { 1.;.J C C C C D ..1...S Z Z Z Z n = % 2 Z C C C C l % % % % %                               ",
"                        u u : % $ { 1.;.J C C C C A L a p e w w w w q % % 2 Z C C C C l % % % % %                               ",
"                            O % $ { 1.=.J C C C C B 6 % % % % % % % % % % 2 Z C C C C l % % % % %                               ",
"                            O % $ [ %.$.P S S C C B 8 = = = = = = = = = = 4 Z C C V V f % % % $ $                               ",
"                            O % % r t u / | | F C C m n n n n n n n n n n N C C h 7 7 * % $ O                                   ",
"                            O % % % % : ` <.1.H C C C C C C C C C C C C C C C C f % % % % $ .                                   ",
"                            . # + % % : ] 1.1.H Z Z C C C C C C C C C Z Z Z Z Z g % % % % $ .                                   ",
"                                  O % % , , , ; * 8 m C C C C C C C n 1 * * * * = % % % % $ .                                   ",
"                                  O % % % % % % % 5 m C C C C C C C b = % % % % % % % % % $ .                                   ",
"                                  . O O O O O $ % < x M M M M M M M z = % % % % # O O O O X                                     ",
"                                              O % % % % % % % % % % % % % % % % .                                               ",
"                                              O % % % % % % % % % % % % % % % % .                                               ",
"                                              . + O O O + + O O O + + O O O + +                                                 ",
"                                                                                                                                ",
"                                                                                                                                ",
"                                                                                                                                ",
"                                                                                                                                ",
"                                                                                                                                ",
"                                                                                                                                ",
"                                                                                                                                ",
"                                                                                                                                ",
"                                                                                                                                "
};
