/* XPM */
static char *af68b5ce44eb4fc69aac2a9f5bca0280sVjIL9H8ga2iLVsa[] = {
/* columns rows colors chars-per-pixel */
"64 64 187 2 ",
"   c #BEAAA7",
".  c #653418",
"X  c #6F4028",
"o  c #6D3D20",
"O  c #825637",
"+  c #6F3D1D",
"@  c #73401E",
"#  c #7A4C2A",
"$  c #D1B78A",
"%  c #8D5929",
"&  c #9A642E",
"*  c #B78E5D",
"=  c #774525",
"-  c #A87A47",
";  c #BD9869",
":  c #A3794D",
">  c #C4A374",
",  c #B8976E",
"<  c #7B4E2F",
"1  c #8F6745",
"2  c #A47F5A",
"3  c #9D7853",
"4  c #AC7F4C",
"5  c #A26E3B",
"6  c #C8A97A",
"7  c #A47440",
"8  c #CAAE7F",
"9  c #CEB385",
"0  c #9E6934",
"q  c #AF8451",
"w  c #633317",
"e  c #603116",
"r  c #B2956E",
"t  c #96612C",
"y  c #B38958",
"u  c #B99363",
"i  c #5D3015",
"p  c #5E3E2C",
"a  c #776358",
"s  c #5E3B26",
"d  c #7F4E24",
"f  c #C2A77C",
"g  c #A0A0A0",
"h  c gray78",
"j  c #C0C0C0",
"k  c #969392",
"l  c #AD875A",
"z  c #93724F",
"x  c #DADADA",
"c  c white",
"v  c #CDCDCD",
"b  c #7B5534",
"n  c #8B6743",
"m  c #754620",
"M  c #835D38",
"N  c #683F24",
"B  c #5B2E15",
"V  c #7D512C",
"C  c #775032",
"Z  c #946436",
"A  c #E7E7E7",
"S  c #6C5447",
"D  c #897F7A",
"F  c #6C462B",
"G  c #AB978D",
"H  c #F9F9F9",
"J  c gray66",
"K  c #76543D",
"L  c gray95",
"P  c gray88",
"I  c #9A9A9A",
"U  c #6C594F",
"Y  c gray53",
"T  c #E2E2E2",
"R  c gray77",
"E  c #58443A",
"W  c #606060",
"Q  c gray57",
"!  c #797979",
"~  c gray39",
"^  c #8A776C",
"/  c #C1C1C1",
"(  c #C5C5C5",
")  c #815D43",
"_  c #857267",
"`  c gray51",
"'  c #4C4C4C",
"]  c #64412F",
"[  c #785B4A",
"{  c #6E4E3C",
"}  c #623718",
"|  c #AEAEAE",
" . c gray81",
".. c #4F2811",
"X. c #816658",
"o. c #C3B9B4",
"O. c #6F4527",
"+. c #794C25",
"@. c #8C5A29",
"#. c #532C13",
"$. c #B18B5B",
"%. c #8F623C",
"&. c #502910",
"*. c #835225",
"=. c #643319",
"-. c #885527",
";. c #814D24",
":. c #A3835E",
">. c #552B13",
",. c #4F3120",
"<. c #4F2A14",
"1. c #5E3416",
"2. c #794B22",
"3. c #AE8556",
"4. c #4F3528",
"5. c #615A55",
"6. c gray50",
"7. c gray63",
"8. c gray54",
"9. c #6B6563",
"0. c #4F3B2F",
"q. c #593015",
"w. c #4D3F37",
"e. c #524B46",
"r. c #542E16",
"t. c #6C3F1D",
"y. c #4E3D32",
"u. c gray43",
"i. c #4D4541",
"p. c #915D2B",
"a. c #502C19",
"s. c gray70",
"d. c #A5A5A5",
"f. c LightGray",
"g. c #9F9F9F",
"h. c #CACACA",
"j. c #4D413A",
"k. c #4D433E",
"l. c #B7B7B7",
"z. c #B4B4B4",
"x. c #4D4A49",
"c. c #9B9B9B",
"v. c gray75",
"b. c #AFAFAF",
"n. c #959595",
"m. c #747474",
"M. c #515151",
"N. c gray83",
"B. c #4F3324",
"V. c #6A6A6A",
"C. c #DDDDDD",
"Z. c #7E7E7E",
"A. c #565656",
"S. c #4F2E1D",
"D. c #4E372C",
"F. c #613217",
"G. c #71431D",
"H. c #684D3E",
"J. c #847871",
"K. c #634535",
"L. c #774F2F",
"P. c #BA9D75",
"I. c #593723",
"U. c #5C3115",
"Y. c #B18D64",
"T. c #673C1A",
"R. c #805632",
"E. c #623417",
"W. c #683B1A",
"Q. c #A98358",
"!. c #673F22",
"~. c #9E8A80",
"^. c gray93",
"/. c #D7D7D7",
"(. c gray34",
"). c #8A6951",
"_. c #938076",
"`. c #9F7347",
"'. c #CBC8C7",
"]. c #9C6D41",
"[. c #9A7B57",
"{. c #B1A19A",
"}. c #512912",
"|. c #693719",
" X c #98683B",
".X c #794621",
"XX c #8E6037",
/* pixels */
"  . . . . . . . . . . . . . . . . . . . . . . . . . . . . . . . . . . . . . . . . . . . . . . . . . . . . . . . . . . . . . . X ",
". . . . . . . . . . . . . . . . . . . . . . . . . . . . . . . . . . . . . . . . . . . . . . . . . . . . . . . . . . . . . . . . ",
". o O O O O O . . . + @ @ @ @ @ @ @ @ @ @ @ @ @ @ @ @ @ @ @ @ @ @ @ @ @ @ @ @ @ @ @ @ @ @ @ @ @ @ @ @ @ @ # O . . . O O O O O o ",
". O $ $ $ $ $ . . . % & & & & & & & & & & & & & & & & & & & & & & & & & & & & & & & & & & & & & & & & & & * $ . . . $ $ $ $ $ O ",
". = - - - ; $ . . . % & & & & & & & & & & & & & & & & & & & & & & & & & & & & & & & & & & & & & & & & & & * $ . . . - - - ; $ O ",
". @ & & & * $ . . . % & & & & & & & & & & & & & & & & & & & & & & & & & & & & & & & & & & & & & & & & & & * $ . . . & & & * $ O ",
". @ & & & * $ . . . : * * * * * * * * * * * * * * * * * * * * * * * * * * * * * * * * * * * * * * * * * * > $ . . . & & & * $ O ",
". @ & & & * $ . . . , $ $ $ $ $ $ $ $ $ $ $ $ $ $ $ $ $ $ $ $ $ $ $ $ $ $ $ $ $ $ $ $ $ $ $ $ $ $ $ $ $ $ $ $ . . . & & & * $ O ",
". @ & & & * $ . . . . . . . . . . . . . . . . . . . . . . . . . . . . . . . . . . . . . . . . . . . . . . . . . . . & & & * $ O ",
". @ & & & * $ . . . . . . . . . . . . . . . . . . . . . . . . . . . . . . . . . . . . . . . . . . . . . . . . . . . & & & * $ O ",
". @ & & & * $ . . . . . . . . . . . . . . . . . . . . . . . . . . . . . . . . . . . . . . . . . . . . . . . . . . . & & & * $ O ",
". @ & & & * $ . . . , , , , , , , , , < . < , , , , , , , , , < . < , , , , , , , , , . . 1 , , , , , , , , 2 . . . & & & * $ O ",
". @ & & & * $ . . . $ $ $ $ $ $ $ $ $ O . O $ $ $ $ $ $ $ $ $ O . O $ $ $ $ $ $ $ $ $ . . 3 $ $ $ $ $ $ $ $ , . . . & & & * $ O ",
". @ & & & * $ . . . $ 4 5 6 $ $ $ $ $ O . O $ 7 5 8 $ $ $ $ $ O . O 9 0 - 9 $ $ $ $ $ . . 3 6 0 q $ $ $ $ $ , . . . & & & * $ O ",
". @ & & & * $ . w e r t & * $ $ - $ $ O . O > & & * $ 8 - $ $ O . O > & & > $ > y $ $ . . 3 * & & $ $ u ; $ , . . . & & & * $ O ",
". @ & & & * $ i p a a s d * $ 6 & > $ O . O > & & * $ > & 8 $ O . O * & & > $ * 0 $ $ . . 3 * & & $ $ q 7 $ , . . . & & & * $ O ",
". @ & & & * f p g h j k s l $ > & * $ O . O > & & * $ * & > $ O . O * & & > $ y & 6 $ . . 3 y & & $ $ - & $ , . . . & & & * $ O ",
". @ & & & * z a x c c v a b z n m M z N B N n m m M z M m M z N B N M m m n z V m n z B B C V m m z z Z & $ , . . . & & & * $ O ",
". @ & & & * z a A c c A a S D D D D D D D D D D D D D D D D D D D D D D D D D D D D D D D D D D D D D F & 8 , . . . & & & * $ O ",
". @ & & & * z a x c c x a G c c c c c c c c c c c c c c c c c c c c c c c c c c c c c c c c c c c H J K & > , . . . & & & * $ O ",
". @ & & & * z a g L P g a G c c c c c c c c c c c c c c c c c c c c c c c c c c c c c c c c c c c H J K & > , . . . & & & * $ O ",
". @ & & & * z a I A v I a U Y Y Y Y Y Y Y Y Y Y Y Y Y Y Y Y Y Y Y Y Y Y Y Y Y Y Y Y Y Y Y Y Y Y Y Y I K & > , . . . & & & * $ O ",
". @ & & & * z a I T R I a E W W W W W W W W W W W W W W W W W W W W W W W W W W W W W W W W W W W W Q K & > , . . . & & & * $ O ",
". @ & & & * z a ! ~ ~ ! a ^ / / / / / / / / / / / / / / / / / / / / / / / / / / / / / / / / / / / / ( ) & > , . . . & & & * $ O ",
". @ & & & * z _ ` ' ' ` ^ ] [ [ [ [ [ [ [ [ [ [ [ [ [ [ [ [ [ [ [ [ [ [ [ [ [ [ [ [ [ [ [ [ [ [ [ [ { } & > , . . . & & & * $ O ",
". @ & & & * z [ ( | |  .{ ............................................................................} & > , . . . & & & * $ O ",
". @ & & & * z ..X.o.o.X...b M m m V z N B N V m m M M m m V z N B N m m m n V m m M z B B O.m m m z +.@.& u , . . . & & & * $ O ",
". @ & & & * f ..........#.$.* & & 0 $ O . O 5 & & * q & & - $ O . O & & & > - & & * $ . . %.& & & $ & & & * , . . . & & & * $ O ",
". @ & & & * $ i &.....#.*.* y & & & $ O . O & & & * - & & - $ O . O & & & > 0 & & * $ . . %.& & & $ & & & * , . . . & & & * $ O ",
". @ & & & * $ . =.e -.t & * - & & & $ O . @ & & & * 7 & & - $ O . @ & & & > & & & 4 $ . . ;.& & & > & & & * , . . . & & & * $ O ",
". @ & & & * $ . . . & & & * - & & & $ O . @ & & & * & & & - $ O . @ & & & ; & & & - $ . . ;.& & & > & & & * , . . . & & & * $ O ",
". @ & & & * $ . . . & & & * & & & & $ O . @ & & & * & & & - $ O . @ & & & * & & & - $ . . ;.& & & u & & & * , . . . & & & * $ O ",
". @ & & & * $ . . . & & & * & & & & $ O . @ & & & - & & & & $ O . @ & & & y & & & - :.>...,.<.1.2.3.& & & * , . . . & & & * $ O ",
". @ & & & * $ . . . & & & 4 & & & & $ O . @ & & & 7 & & & & $ O . @ & & & 7 & & t 1.4.5.6.7.8.9.0.q.@.& & * , . . . & & & * $ O ",
". @ & & & * $ . . . & & & & & & & & 9 O . @ & & & & & & & & $ O . @ & & & & & t 1.w.! j c c c x Y e.r.@.& - , . . . & & & * $ O ",
". @ & & & * $ . . . & & & & & & & & > O . @ & & & & & & & & $ O . @ & & & & & t.y.u.I H c c c c J Y i.1.& - , . . . & & & * $ O ",
". @ & & & * $ . . . & & & & & & & & > O . @ & & & & & & & & $ O . @ & & & & p.a.W s.I H c c c c J d.Y 4.d - , . . . & & & * $ O ",
". @ & & & * $ . . . & & & & & & & & > O . @ & & & & & & & & $ O . @ & & & & 2.0.d.s.I j H c c f.I g.h.j.t.- , . . . & & & * $ O ",
". @ & & & * $ . . . & & & & & & & & > O . @ & & & & & & & & $ O . @ & & & & m k./ l.| P f.z.J I I d.A x.} - , . . . & & & * $ O ",
". @ & & & * $ . . . & & & & & & & & > O . @ & & & & & & & & 9 O . @ & & & & m k./ c.v.c c I I I Q ! A ' } - , . . . & & & * $ O ",
". @ & & & * $ . . . & & & & & & & & > O . @ & & & & & & & & > O . @ & & & & m y.b./ u.J | n.Y m.M.c.N.k.} - , . . . & & & * $ O ",
". @ & & & * $ . . . & & & & & & & & > O . @ & & & & & & & & > O . @ & & & & @.B.m.A Y ' ' ' ' ' V.C.c.0.2.7 , . . . & & & * $ O ",
". @ & & & * $ . . . & & & & & & & & ; O . @ & & & & & & & & > O . @ & & & & & 1.k.Y C./ Y m.Z.b.A d.x.r.t & , . . . & & & * $ O ",
". @ & & & * $ . . . & & & & & & & & * O . @ & & & & & & & & > O . @ & & & & & -.a.x.A.Q b./ l.c.W ' ,.2.& & , . . . & & & * $ O ",
". @ & & & * $ . . . & & & & & & & & * O . @ & & & & & & & & > O . @ & & & & & & #.<.k.' ' ' ' ' i.S...p.& & , . . . & & & * $ O ",
". @ & & & * $ . . . & & & & & & & & * O . @ & & & & & & & & > O . @ & & & & & & t.....a.4.0.D.S.....1.& & & , . . . & & & * $ O ",
". @ & & & * $ . . . & & & & & & & & * O . @ & & & & & & & & > O . @ & & & & & & p...................d & & & , . . . & & & * $ O ",
". @ & & & * $ . F.B 2.p.& & & & & & * O . @ & & & & & & & & ; O . @ & & & & & & & G...............} & & & & , . . . & & & * $ O ",
". @ & & & * $ B H.J.J.K.d & & & & & * O . @ & & & & & & & & * O . @ & & & & & & & & L...........1.t & & & & , . . . & & & * $ O ",
". @ & & & * P.K.g v h g I.p.& & & & * O . @ & & & & & & & & * O . @ & & & & & & & & > i >.U.} 2.& & & & & & Y.. . . & & & * $ O ",
". @ & & & * z a x c c f.a T.m m m m R.N B E.m m m m m m m m M N B E.m m m m m m m m n B B W.m m m m m @.& & Q.. . . & & & * $ O ",
". @ & & & * z a A c c A a S D D D D D D D D D D D D D D D D D D D D D D D D D D D D D D D D D D D D J.!.& & Q.. . . & & & * $ O ",
". @ & & & * z a x c c v a ~.A A A A A A A A A A A A A A A A A A A A A A A A A A A A A A A A A A A A J K & & Q.. . . & & & * $ O ",
". @ & & & * z a g ^.P I a G c c c c c c c c c c c c c c c c c c c c c c c c c c c c c c c c c c c c | K & & Q.. . . & & & * $ O ",
". @ & & & * z a I A v I a U Y Y Y Y Y Y Y Y Y Y Y Y Y Y Y Y Y Y Y Y Y Y Y Y Y Y Y Y Y Y Y Y Y Y Y Y I K & & Q.. . . & & & * $ O ",
". @ & & & * z a n./.R I a E W W W W W W W W W W W W W W W W W W W W W W W W W W W W W W W W W W W W Q K & & Q.. . . & & & * $ O ",
". @ & & & * z a m.~ (.! a ^ / / / / / / / / / / / / / / / / / / / / / / / / / / / / / / / / / / / / ( ).& & Q.. . . & & & * $ O ",
". @ & & & * z ^ ` M.M.Y _.] [ [ [ [ [ [ [ [ [ [ [ [ [ [ [ [ [ [ [ [ [ [ [ [ [ [ [ [ [ [ [ [ [ [ [ [ [ } & & `.. . . & & & * $ O ",
". @ & & & * z [  .| s.'.] ............................................................................} & & ].. . . & & & * $ O ",
". @ & & & * [...[ {.{.{ ..t.m m m m m N B E.m m m m m m m m V N B E.m m m m m m m m M B B W.m m m m m *.& & ].. . . & & & * $ O ",
". @ & & & * f &.........#.t & & & & & O . @ & & & & & & & & - O . @ & & & & & & & & - . . ;.& & & & & & & & ].. . . & & & * $ O ",
". @ & & & * $ e }.....q.@.& & & & & & O . @ & & & & & & & & - O . @ & & & & & & & & - . . ;.& & & & & & & & ].. . . & & & * $ O ",
". @ & & & * $ . . e @.& & & & & & & & O . @ & & & & & & & & - O . @ & & & & & & & & - . . ;.& & & & & & & & ].. . . & & & * $ O ",
". |.@ @ @ # O . . . % % % % % % % % % < . + % % % % % % % % % < . + % % % % % % % %  X. . .X% % % % % % % % XX. . . @ @ @ # O o "
};
