/* XPM */
static char *_820b9cb9aba4573d53598bd5c21c3f1JdGE70sd5Ycfkm9E[] = {
/* columns rows colors chars-per-pixel */
"64 64 195 2 ",
"   c None",
".  c #4F2912",
"X  c #4F2E1C",
"o  c #542C14",
"O  c #592E14",
"+  c #512F1B",
"@  c #5C3116",
"#  c #5B331B",
"$  c #51311E",
"%  c #623217",
"&  c #653418",
"*  c #683719",
"=  c #653A1B",
"-  c #6C3B1D",
";  c #703E1E",
":  c #4F3628",
">  c #4F382C",
",  c #4E3120",
"<  c #543421",
"1  c #5A3620",
"2  c #5C3924",
"3  c #53392A",
"4  c #5F3D29",
"5  c #4F3D34",
"6  c #643B23",
"7  c #6D3E22",
"8  c #603D28",
"9  c #6E421F",
"0  c #77441F",
"q  c #4E433C",
"w  c #57453B",
"e  c #6C4223",
"r  c #62402C",
"t  c #6B452C",
"y  c #6F4827",
"u  c #714324",
"i  c #794620",
"p  c #7E4A22",
"a  c #754629",
"s  c #764B2A",
"d  c #7A4D2D",
"f  c #774923",
"g  c #7B512F",
"h  c #6B4A36",
"j  c #734E31",
"k  c #7B4F30",
"l  c #755035",
"z  c #7B5333",
"x  c #72513D",
"c  c #7D593B",
"v  c #574D47",
"b  c #5C5653",
"n  c #5A5A5A",
"m  c #59504A",
"M  c #65554D",
"N  c #7B5E4B",
"B  c #795841",
"V  c #625E5C",
"C  c #735F55",
"Z  c #65605D",
"A  c #766256",
"S  c #766358",
"D  c #79655A",
"F  c #7D6558",
"G  c #646464",
"H  c #6B6B6B",
"J  c #696461",
"K  c #7E6E65",
"L  c #75706D",
"P  c #777777",
"I  c #7A7A7A",
"U  c #7D7875",
"Y  c #814E24",
"T  c #845226",
"R  c #895527",
"E  c #85542A",
"W  c #8B5628",
"Q  c #8E5A2A",
"!  c #925D2B",
"~  c #845937",
"^  c #8C5D33",
"/  c #825D3D",
"(  c #8B5F3B",
")  c #915F31",
"_  c #96612D",
"`  c #9A642E",
"'  c #89603E",
"]  c #8D6137",
"[  c #936235",
"{  c #9B6631",
"}  c #9D6934",
"|  c #96673D",
" . c #9B6B3C",
".. c #A16E39",
"X. c #A2713D",
"o. c #875F4F",
"O. c #846343",
"+. c #8B6543",
"@. c #82644A",
"#. c #8B6A4B",
"$. c #916946",
"%. c #946D49",
"&. c #976C43",
"*. c #98704E",
"=. c #9D7244",
"-. c #8A6451",
";. c #816855",
":. c #856B58",
">. c #917355",
",. c #9E7953",
"<. c #A67642",
"1. c #A97945",
"2. c #A1774B",
"3. c #A4794C",
"4. c #AB7C49",
"5. c #A67844",
"6. c #A27D54",
"7. c #A87F52",
"8. c #806D61",
"9. c #877469",
"0. c #837E7B",
"q. c #AD804D",
"w. c #AE8352",
"e. c #A6815B",
"r. c #AA845D",
"t. c #AC865B",
"y. c #B08553",
"u. c #B38957",
"i. c #B58D5B",
"p. c #B88F5E",
"a. c #B8905F",
"s. c #84807F",
"d. c #8D837D",
"f. c #968479",
"g. c #AD8B63",
"h. c #B08D65",
"j. c #B39066",
"k. c #B99363",
"l. c #B4946B",
"z. c #BD9A6A",
"x. c #B8966A",
"c. c #A5887C",
"v. c #BB9B72",
"b. c #BEA076",
"n. c #C19F6F",
"m. c #C19F70",
"M. c #C5A576",
"N. c #C6AA7D",
"B. c #C8A97A",
"V. c #C5A67A",
"C. c #878787",
"Z. c #8E8E8E",
"A. c #9A8B82",
"S. c #938D8A",
"D. c #988F8B",
"F. c #938B87",
"G. c #9F9189",
"H. c #949494",
"J. c #9C9B9B",
"K. c #9E9894",
"L. c #A1928A",
"P. c #A39B97",
"I. c #AB9A91",
"U. c #A98E85",
"Y. c #ACA19C",
"T. c #B6A59C",
"R. c #A3A3A3",
"E. c #ACACAC",
"W. c #B4ACA8",
"Q. c #B7B2AF",
"!. c #B3B3B3",
"~. c #BBBBBB",
"^. c #BCB5B2",
"/. c #CAAE81",
"(. c #CDB286",
"). c #CFB588",
"_. c #D1B78A",
"`. c #C2AFAD",
"'. c #CBBCBD",
"]. c #C2BDBA",
"[. c #C4C4C4",
"{. c #CBCBCB",
"}. c #C9C3C1",
"|. c #D1C3C1",
" X c #D6C9C3",
".X c #D6D6D6",
"XX c #DFD8DE",
"oX c #DDDBDD",
"OX c #E0D9DE",
"+X c #E6DFE1",
"@X c gray89",
"#X c #EDE7E4",
"$X c #ECECEC",
"%X c #F5F4F4",
"&X c #FEFEFE",
/* pixels */
"                                                                                                                                ",
"    OXU.o.-.-.-.-.-.-.-.-.-.-.-.-.-.-.-.o.o.o.o.o.o.o.o.o.o.o.o.o.-.-.-.-.-.-.-.-.-.-.-.-.-.-.-.o.o.o.o.o.o.o.o.o.o.o.-.`.$X&X  ",
"    c.& & & & & & & & & & & & & & & & & & & & & & & & & & & & & & & & & & & & & & & & & & & & & & & & & & & & & & & & & 7 c.%X  ",
"    & * - - - - & & & & * * * * * * * * * * * * * * * * * * * * * * * * * * * * * * * * * * * * * * * - - & & & - - - - * & +X  ",
"    * z *.*.*.*.s & & i p p p p p p p p p p p p p p p p p p p p p p p p p p p p p p p p p p p p p p p ( %.& & s *.*.*.*.z * XX  ",
"    - $.M.M.V.(.' & & R ` ` ` ` ` ` ` ` ` ` ` ` ` ` ` ` ` ` ` ` ` ` ` ` ` ` ` ` ` ` ` ` ` ` ` ` ` ` ` p.N.& & ~ M.M.B.(.*.- XX  ",
"    * T X.X.w.B.' & & R ` ` ` ` ` ` ` ` ` ` ` ` ` ` ` ` ` ` ` ` ` ` ` ` ` ` ` ` ` ` ` ` ` ` ` ` ` ` ` p.N.& & f X.X.y.B.*.- XX  ",
"    * p ` ` 1.M.' & & [ 5.1.1.1.1.1.1.1.1.1.1.1.1.1.1.1.1.1.1.1.1.1.1.1.1.1.1.1.1.1.1.1.1.1.1.1.1.1.1.z.N.& & 0 ` ` 4.B.*.- XX  ",
"    * p ` ` 1.M.' & & e.M.M.M.M.M.M.M.M.M.M.M.M.M.M.M.M.M.M.M.M.M.M.M.M.M.M.M.M.M.M.M.M.M.M.M.M.M.M.M./.N.& & 0 ` ` 4.B.*.- XX  ",
"    * p ` ` 1.M.' & & ~ $.$.$.$.$.$.$.$.$.$.$.$.$.$.$.$.$.$.$.$.$.$.$.$.$.$.$.$.$.$.$.$.$.$.$.$.$.$.$.$.+.& & 0 ` ` 4.B.*.- XX  ",
"    * p ` ` 1.M.' & & & & & & & & & & & & & & & & & & & & & & & & & & & & & & & & & & & & & & & & & & & & & & 0 ` ` 4.B.*.- XX  ",
"    * p ` ` 1.M.' & & & & & & & & & & & & & & & & & & & & & & & & & & & & & & & & & & & & & & & & & & & & & & 0 ` ` 4.B.*.- XX  ",
"    * p ` ` 1.M.' & & ,.e.e.e.e.e.e.e.+.- u *.e.e.e.e.e.e.e.%.7 7 %.e.e.e.e.e.e.e.%.& a %.e.e.e.e.e.e.e.$.& & 0 ` ` 4.B.*.- XX  ",
"    * p ` ` 1.M.' & & V.(.(.(.(.(.(.(.e.u d v.(.(.(.(.(.(.(.h.a a h.(.(.(.(.(.(.(.l.& d l.(.(.(.(.(.(.(.g.& & 0 ` ` 4.B.*.- XX  ",
"    * p ` ` 1.M.' & & N.y.1.N._._._._.r.u d b.w.<./._._._._.l.a a j.y.4.N._._._._.x.& k j.i.q.B._._._._.h.& & 0 ` ` 4.B.*.- XX  ",
"    * p ` ` 1.M.' & % g._ { k._.M.k._.r.u d j...` p._.M.u._.l.a a r.5.` z._.M.p._.x.& k e.<.` m._.z.z._.h.& & 0 ` ` 4.B.*.- XX  ",
"    * p ` ` 1.M./ 4 C D 8 T k.).k.1.N.r.u d j...` p._.z.<.(.l.a a 3.X.` z._.p.X._.x.& k e.<.` n._.u.<._.h.& & 0 ` ` 4.B.*.- XX  ",
"    * p ` ` 1.z.@.F.[.[.J.r t./.i.X.z.e.e s g. ._ u./.w. .M.g.a a *. ._ k./.w.{ M.l.& d 6.X._ z.(.4.` _.h.& & 0 ` ` 4.B.*.- OX  ",
"    * p ` ` 1.6.;.].&X&X.XA c >.O.z #.B r t O.z d O.>./ z #.@.t t c z d +.>.c z #.@.6 t c z d #.>.] ` ).h.& & 0 ` ` 4.B.*.- #X  ",
"    * p ` ` 1.6.;.}.&X&X@XS F P.P.P.P.P.P.P.P.P.P.P.P.P.P.P.P.P.P.P.P.P.P.P.P.P.P.P.P.P.P.P.P.P.F.x ` B.h.& & 0 ` ` 4.B.*.- #X  ",
"    * p ` ` 1.6.;.Q.%X%X{.D T.&X&X&X&X&X&X&X&X&X&X&X&X&X&X&X&X&X&X&X&X&X&X&X&X&X&X&X&X&X&X&X&X&X~.N ` M.h.& & 0 ` ` 4.B.*.- #X  ",
"    * p ` ` 1.6.;.S.@XoXJ.D A..X.X.X.X.X.X.X.X.X.X.X.X.X.X.X.X.X.X.X.X.X.X.X.X.X.X.X.X.X.X.X.X.XE.N ` M.h.& & 0 ` ` 4.B.*.- #X  ",
"    * p ` ` 1.6.;.S..X{.J.A M P P P P P P P P P P P P P P P P P P P P P P P P P P P P P P P P P H.N ` M.h.& & 0 ` ` 4.B.*.- #X  ",
"    * p ` ` 1.6.;.s.R.J.Z.S S Z.Z.Z.Z.Z.Z.Z.Z.Z.Z.Z.Z.Z.Z.Z.Z.Z.Z.Z.Z.Z.Z.Z.Z.Z.Z.Z.Z.Z.Z.Z.Z.Z.R.@.` M.h.& & 0 ` ` 4.B.*.- #X  ",
"    * p ` ` 1.6.:.U n n I 8.A A.A.A.A.A.A.A.A.A.A.A.A.A.A.A.A.A.A.A.A.A.A.A.A.A.A.A.A.A.A.A.A.A.f.l ` M.h.& & 0 ` ` 4.B.*.- #X  ",
"    * p ` ` 1.6.;.K.Z.C.E.N # 8 8 8 8 8 8 8 8 8 8 8 8 8 8 8 4 4 8 8 8 8 8 8 8 8 8 8 8 8 8 8 8 8 2 & _ M.h.& & 0 ` ` 4.B.*.- #X  ",
"    * p ` ` 1.6.j 9.W.^.A.1 t y = - s t # # e - = s s = - s s # # = = = s y = - s j O @ = = = l y p ` z.h.& & 0 ` ` 4.B.*.- #X  ",
"    * p ` ` 1.x.j 1 h x 2 O 6.3.! ! 7.,.7 a [ ! ! w.2.! _ 7.e.e e E ! ! t.=.! ! t.g.% u ^ ! ! h. ._ ` a.h.& & 0 ` ` 4.B.*.- #X  ",
"    * p ` ` 1.M./ o . . o p p.w.` ` u.r.u d [ ` ` p.1.` } i.l.a a ) ` ` z.X.` } k.x.& a [ ` ` n.<.` ` p.h.& & 0 ` ` 4.B.*.- #X  ",
"    * p ` ` 1.M.' % @ p W ` i.5.` ` u.r.u ; ! ` ` p.<.` } i.l.a - W ` ` z.} ` { i.x.& ; W ` ` k.X.` ` p.h.& & 0 ` ` 4.B.*.- #X  ",
"    * p ` ` 1.M.' & & ! ` { i.<.` ` u.r.u - ! ` ` p.{ ` } i.l.a - W ` ` k.} ` { w.x.& ; W ` ` k.X.` ` p.h.& & 0 ` ` 4.B.*.- #X  ",
"    * p ` ` 1.M.' & & ! ` { u.` ` ` u.r.u - ! ` ` p.` ` } i.l.a - W ` ` u.{ ` { w.x.& ; W ` ` y...` ` p.h.& & 0 ` ` 4.B.*.- #X  ",
"    * p ` ` 1.M.' & & ! ` { u.` ` ` u.r.u - ! ` ` 1.` ` ` 4.l.a - W ` ` w.{ ` { 3.#.O + $ # 9 =.} ` ` p.h.& & 0 ` ` 4.B.*.- +X  ",
"    * p ` ` 1.M.' & & ! ` ` 1.` ` ` u.r.u - ! ` ` X.` ` ` 4.l.a - W ` ` X.` ` W # w L H.R.s.M 1 p _ ` i.h.& & 0 ` ` 4.B.*.- XX  ",
"    * p ` ` 1.M.' & & ! ` ` ` ` ` ` y.e.u - ! ` ` ` ` ` ` 4.l.a - W ` ` ` ` W # m H..X&X&X$XE.J 3 p ` 3.h.& & 0 ` ` 4.B.*.- XX  ",
"    * p ` ` 1.M.' & & ! ` ` ` ` ` ` q.6.u - ! ` ` ` ` ` ` 4.l.a - W ` ` ` ` = v C.!.&X&X&X&X{.H.Z 1 ! 3.h.& & 0 ` ` 4.B.*.- XX  ",
"    * p ` ` 1.M.' & & ! ` ` ` ` ` ` q.6.u - ! ` ` ` ` ` ` 4.l.a - W ` ` ` W < I E.E.$X&X&X&X[.R.J.w f 3.h.& & 0 ` ` 4.B.*.- XX  ",
"    * p ` ` 1.M.' & & ! ` ` ` ` ` ` q.6.u - ! ` ` ` ` ` ` 4.l.a - W ` ` ` f 5 E.!.E..X$X@X{.E.J.{.b = 4.h.& & 0 ` ` 4.B.*.- XX  ",
"    * p ` ` 1.M.' & & ! ` ` ` ` ` ` q.6.u - ! ` ` ` ` ` ` 4.l.a - W ` ` ` f q ~.E.[.$X{.R.J.J.H..XV = 4.h.& & 0 ` ` 4.B.*.- XX  ",
"    * p ` ` 1.M.' & & ! ` ` ` ` ` ` q.6.u - ! ` ` ` ` ` ` 1.g.a - W ` ` ` f q ~.E.E..X~.H.Z.I C.{.V = 4.h.& & 0 ` ` 4.B.*.- XX  ",
"    * p ` ` 1.M.' & & ! ` ` ` ` ` ` q.6.u - ! ` ` ` ` ` ` <.r.a - W ` ` ` T > H.[.I I P H G n R.^.m 9 5.h.& & 0 ` ` 4.B.*.- XX  ",
"    * p ` ` 1.M.' & & ! ` ` ` ` ` ` 4.,.u - ! ` ` ` ` ` ` <.r.a - W ` ` ` _ # V !.!.C.H G I R.~.I 3 R } h.& & 0 ` ` 4.B.*.- XX  ",
"    * p ` ` 1.M.' & & ! ` ` ` ` ` ` 1.*.u - ! ` ` ` ` ` ` <.r.a - W ` ` ` ` f 3 G Z.R.R.R.R.H.P w e _ { h.& & 0 ` ` 4.B.*.- XX  ",
"    * p ` ` 1.M.' & & ! ` ` ` ` ` ` <.=.u - ! ` ` ` ` ` ` <.r.a - W ` ` ` ` ! o : v G H H G b 5 X T ` { h.& & 0 ` ` 4.B.*.- XX  ",
"    * p ` ` 1.M.' & & ! ` ` ` ` ` ` <.=.u - ! ` ` ` ` ` ` <.r.a - W ` ` ` ` ` = . X : 5 5 > , . @ ! ` { h.& & 0 ` ` 4.B.*.- XX  ",
"    * p ` ` 1.M.' & & ! ` ` ` ` ` ` <.=.u - ! ` ` ` ` ` ` <.r.a - W ` ` ` ` ` R . . . . . . . . 0 _ ` { h.& & 0 ` ` 4.B.*.- XX  ",
"    * p ` ` 1.M.' % O f ! ` ` ` ` ` <.=.u - ! ` ` ` ` ` ` <.7.a - W ` ` ` ` ` _ = . . . . . . @ W ` ` { h.& & 0 ` ` 4.B.*.- XX  ",
"    * p ` ` 1.M./ h K 9.h T ` ` ` ` <.=.u - ! ` ` ` ` ` ` X.3.a - W ` ` ` ` ` ` _ y . . . . O T ` ` ` { h.& & 0 ` ` 4.B.*.- @X  ",
"    * p ` ` 1.x.@.F.[.{.R.2 ! ` ` ` <.=.u - ! ` ` ` ` ` ` X.2.a - W ` ` ` ` ` ` ..r.O O @ 9 W ` ` ` ` ` r.& & 0 ` ` 4.B.*.- #X  ",
"    * p ` ` 1.6.;.].&X&X.XA e s s s z j 6 6 a s s s s s s g c 6 6 a s s s s s s g / # 6 a s s s s R ` ` 6.& & 0 ` ` 4.B.*.- #X  ",
"    * p ` ` 1.6.;.}.&X&X@XS S D.D.D.D.D.D.D.D.D.D.D.D.D.D.D.D.D.D.D.D.D.D.D.D.D.D.D.D.D.D.D.D.D.d.h _ ` 6.& & 0 ` ` 4.B.*.- #X  ",
"    * p ` ` 1.6.;.Q.%X%X[.D I.$X$X$X$X$X$X$X$X$X$X$X$X$X$X$X$X$X$X$X$X$X$X$X$X$X$X$X$X$X$X$X$X$X^.N ` ` 6.& & 0 ` ` 4.B.*.- #X  ",
"    * p ` ` 1.6.;.S.oXoXJ.D L.oXoXoXoXoXoXoXoXoXoXoXoXoXoXoXoXoXoXoXoXoXoXoXoXoXoXoXoXoXoXoXoXoX!.N ` ` 6.& & 0 ` ` 4.B.*.- #X  ",
"    * p ` ` 1.6.;.F..X{.J.A M I I I I I I I I I I I I I I I I I I I I I I I I I I I I I I I I I H.N ` ` 6.& & 0 ` ` 4.B.*.- #X  ",
"    * p ` ` 1.6.;.0.R.J.Z.A C C.C.C.C.C.C.C.C.C.C.C.C.C.C.C.C.C.C.C.C.C.C.C.C.C.C.C.C.C.C.C.C.C.R.;.` ` 6.& & 0 ` ` 4.B.*.- #X  ",
"    * p ` ` 1.6.:.U G n I 8.F G.G.G.G.G.G.G.G.G.G.G.G.G.G.G.G.G.G.G.G.G.G.G.G.G.G.G.G.G.G.G.G.G.L.B ` ` =.& & 0 ` ` 4.B.*.- #X  ",
"    * p ` ` 1.6.:.P.Z.C.E.N 1 r r r r r r r r r r r r r r r r r r r r r r r r r r r r r r r r r r = _ ` | & & 0 ` ` 4.B.*.- #X  ",
"    * p ` ` 1.e.l 9.Y.W.f.# & = = = = = @ O & = = = = = = = 6 # O & = = = = = = = e o @ & = = = = 0 ` ` | & & 0 ` ` 4.B.*.- #X  ",
"    * p ` ` 1.x.j # h B 1 o R W W W W E 7 * T W W W W W W ! ] e * Y W W W W W W ! ] % * T W W W W ! ` ` | & & 0 ` ` 4.B.*.- #X  ",
"    * p ` ` 1.M./ o . . O p ` ` ` ` ` ^ u - ! ` ` ` ` ` ` } &.a - W ` ` ` ` ` ` } | & ; W ` ` ` ` ` ` ` | & & 0 ` ` 4.B.*.- #X  ",
"    * p ` ` 1.M.' % @ p W _ ` ` ` ` ` ^ u ; ! ` ` ` ` ` ` } &.a - W ` ` ` ` ` ` } | & ; W ` ` ` ` ` ` ` | & & 0 ` ` 4.B.*.- #X  ",
"    & - i i d ( u & & R W W W W W W Q E e - R W W W ! Q Q ! W u * T W W W W ! ! ! ^ & - T W W W W W W W ^ & & - i i d ' d & @X  ",
"    & & & & & & & & & * * * * * * * * * & & * * * * * * * * * & & * * * * * * * * * & & * * * * * * * * * & & & & & & & & & OX  ",
"       X|.'.'.'.'.'.'.'.'.'.'.'.'.'.'.|. X X X X X X X X X X X X|.'.'.'.'.'.'.'.'.'.'.'.'.'.'. X X X X X X X X X X X X X|.'.    "
};
