/* XPM */
static char *bb2cca33bb454611afe7a10872ccf0eceBgHZB73dzfaAPLe[] = {
/* columns rows colors chars-per-pixel */
"16 16 57 1 ",
"  c black",
". c gray57",
"X c gainsboro",
"o c gray94",
"O c None",
"+ c gray98",
"@ c #F4F4F4",
"# c #EFEFEF",
"$ c gray86",
"% c gray50",
"& c gray74",
"* c gray95",
"= c #EFEFEF",
"- c gray77",
"; c #C1C1C1",
": c gray97",
"> c gray96",
", c gray74",
"< c #838383",
"1 c gray93",
"2 c #EAEAEA",
"3 c #1E1E1E",
"4 c #E2E2E2",
"5 c #D5D5D5",
"6 c gray93",
"7 c #E7E7E7",
"8 c #F4F4F4",
"9 c #EFEFEF",
"0 c #F3F3F3",
"q c #EEEEEE",
"w c gray92",
"e c #ECECEC",
"r c gray92",
"t c #BCBCBC",
"y c gray98",
"u c gray96",
"i c #C1C1C1",
"p c #E4E4E4",
"a c #E4E4E4",
"s c #C0C0C0",
"d c #F3F3F3",
"f c #DFDFDF",
"g c gray81",
"h c gray58",
"j c #E7E7E7",
"k c #F8F8F8",
"l c gray95",
"z c #DDDDDD",
"x c #B1B1B1",
"c c #B6B6B6",
"v c gray88",
"b c gray92",
"n c #DFDFDF",
"m c #E2E2E2",
"M c gray93",
"N c gray89",
"B c #B9B9B9",
/* pixels */
"   .XoO++@#$%   ",
"  &*++++++++=-  ",
" ;:++++++++++>, ",
"<1++++++++++++23",
"4++++++++++++++5",
"6++++++++++++++7",
"8++++++++++++++9",
"+++++++++++++++@",
"+++++++++++++++0",
"q++++++++++++++w",
"e++++++++++++++r",
"ty++++++++++++ui",
" p++++++++++++a ",
" sd++++++++++fg ",
"  hjk++++++lzx  ",
"    cvbnmMNB    "
};
