/* XPM */
static char *enemy[] = {
/* columns rows colors chars-per-pixel */
"64 64 237 2 ",
"   c #060C0B",
".  c #090E0B",
"X  c #0A0905",
"o  c #130D09",
"O  c #05150C",
"+  c #0A110C",
"@  c #031B0C",
"#  c #091A0B",
"$  c #14120C",
"%  c #1B140C",
"&  c #181C0E",
"*  c #0B0F11",
"=  c #061512",
"-  c #0B1513",
";  c #051C14",
":  c #0A1C13",
">  c #0C1B19",
",  c #141312",
"<  c #151915",
"1  c #1A1B14",
"2  c #1C1C1B",
"3  c #171916",
"4  c #2A170D",
"5  c #231B1B",
"6  c #271B17",
"7  c #3B1F0F",
"8  c #07270C",
"9  c #052414",
"0  c #0C2414",
"q  c #0B2A15",
"w  c #0E241D",
"e  c #062A1A",
"r  c #0B2C1A",
"t  c #062916",
"y  c #132C16",
"u  c #132B1B",
"i  c #192417",
"p  c #0D341C",
"a  c #0A3216",
"s  c #1C3416",
"d  c #173619",
"f  c #282418",
"g  c #362718",
"h  c #22391A",
"j  c #3A361D",
"k  c #2A1E22",
"l  c #261E21",
"z  c #0E2A22",
"x  c #1B2C21",
"c  c #132724",
"v  c #0F3522",
"b  c #1C3A23",
"n  c #163825",
"m  c #123731",
"M  c #262424",
"N  c #2A2425",
"B  c #2B2C2C",
"V  c #282729",
"C  c #332C2A",
"Z  c #342A25",
"A  c #233A29",
"S  c #283A25",
"D  c #3B332E",
"F  c #34322B",
"G  c #2A2B33",
"H  c #273834",
"J  c #353334",
"K  c #3A3434",
"L  c #3B3B3C",
"P  c #363838",
"I  c #322C31",
"U  c #4C1E13",
"Y  c #47341F",
"T  c #512D1C",
"R  c #692A1B",
"E  c #742418",
"W  c #44352D",
"Q  c #463B2C",
"!  c #483728",
"~  c #453533",
"^  c #433D3A",
"/  c #473C35",
"(  c #533C35",
")  c #4D3427",
"_  c #7A3528",
"`  c #30401B",
"'  c #19472A",
"]  c #13432A",
"[  c #2E4C2D",
"{  c #264527",
"}  c #3B4523",
"|  c #36512D",
" . c #2C4434",
".. c #274835",
"X. c #374938",
"o. c #2B503B",
"O. c #3C5A3E",
"+. c #365436",
"@. c #2D5229",
"#. c #4A423C",
"$. c #45463C",
"%. c #584739",
"&. c #425C3E",
"*. c #545127",
"=. c #674638",
"-. c #6B523C",
";. c #7C5C3C",
":. c #765A3E",
">. c #586734",
",. c #42603F",
"<. c #686A36",
"1. c #79652F",
"2. c #3F3F40",
"3. c #3D4545",
"4. c #3E4949",
"5. c #384744",
"6. c #3B5642",
"7. c #2A5041",
"8. c #37624C",
"9. c #424646",
"0. c #4C4A45",
"q. c #42494A",
"w. c #4A4B4B",
"e. c #474645",
"r. c #554A44",
"t. c #5C4C44",
"y. c #534845",
"u. c #445B48",
"i. c #575542",
"p. c #595748",
"a. c #4D5554",
"s. c #465A53",
"d. c #545454",
"f. c #595B59",
"g. c #4E4E50",
"h. c #624E46",
"j. c #615E46",
"k. c #64524A",
"l. c #6C564B",
"z. c #6C594D",
"x. c #6B5644",
"c. c #735B44",
"v. c #7A5C41",
"b. c #715649",
"n. c #73594A",
"m. c #655A54",
"M. c #765B52",
"N. c #4B644D",
"B. c #486848",
"V. c #52684D",
"C. c #53724D",
"Z. c #4B6453",
"A. c #4B6952",
"S. c #476E56",
"D. c #536E59",
"F. c #516B56",
"G. c #46735B",
"H. c #547252",
"J. c #55735A",
"K. c #5B7959",
"L. c #616045",
"P. c #6A664E",
"I. c #656757",
"U. c #7A734A",
"Y. c #5A7862",
"T. c #5D6460",
"R. c #6B6B67",
"E. c #757368",
"W. c #6B786C",
"Q. c #8E3628",
"!. c #835B3D",
"~. c #984E39",
"^. c #B3593E",
"/. c #8F6B36",
"(. c #825C43",
"). c #B75A42",
"_. c #9C7659",
"`. c #8C6C4B",
"'. c #A77856",
"]. c #867C69",
"[. c #C4704F",
"{. c #E47152",
"}. c #61825B",
"|. c #6D8D5E",
" X c #7D8141",
".X c #648463",
"XX c #6C8B64",
"oX c #6B8569",
"OX c #688869",
"+X c #79896A",
"@X c #73946B",
"#X c #77996D",
"$X c #709165",
"%X c #7C9C74",
"&X c #7B9B76",
"*X c #659376",
"=X c #7DA274",
"-X c #7FBF70",
";X c #94874F",
":X c #A18254",
">X c #AE9251",
",X c #B29F5D",
"<X c #848A6B",
"1X c #88896C",
"2X c #819F79",
"3X c #B08B6A",
"4X c #83A476",
"5X c #85A57A",
"6X c #87AB7B",
"7X c #91B77F",
"8X c #E0885B",
"9X c #E5B659",
"0X c #CA8E6A",
"qX c #CBB269",
"wX c #D9A652",
"eX c #96C77D",
"rX c #ABC96E",
"tX c #DBC272",
"yX c #E9CD7E",
"uX c #73AF8C",
"iX c #74C6A4",
"pX c #76C58A",
"aX c #87AC83",
"sX c #8BB382",
"dX c #91B589",
"fX c #AEA688",
"gX c #C3BA90",
"hX c #97C486",
"jX c #A2D999",
"kX c #ABE5A4",
"lX c #B8EBA4",
"zX c #BFECBE",
"xX c #C8C196",
"cX c #F0D68B",
"vX c #F8E29B",
"bX c #FCEAA8",
"nX c None",
/* pixels */
"nXnXnXnXnXnXnXnXnXnXnXnXnXnXnXnXnXnXnXnXnXnXnXnXnXnXnXnXnXnXnXnXnXnXnXnXnXnXnXnXnXnXnXnXnXnXnXnXnXnXnXnXnXnXnXnXnXnXnXnXnXnXnXnX",
"nXnXnXnXnXnXnXnXnXnXnXnXnXnXnXnXnXnXnXnXnXnXnXnXnXnXnXnXnXnXnXnXnXnXnXnXnXnXnXnXnXnXnXnXnXnXnXnXnXnXnXnXnXnXnXnXnXnXnXnXnXnXnXnX",
"nXnXnXnXnXnXnXnXnXnXnXnXnXnXnXnXnXnXnXnXnXnXnXnXnXnXnXnXnXnXnXnXnXnXnXnXnXnXnXnXnXnXnXnXnXnXnXnXnXnXnXnXnXnXnXnXnXnXnXnXnXnXnXnX",
"nXnXnXnXnXnXnXnXnXnXnXnXnXnXnXnXnXnXnXnXnXnXnXnXnXnXnXnXnXnXnXnXnXnXnXnXnXnXnXnXnXnXnXnXnXnXnXnXnXnXnXnXnXnXnXnXnXnXnXnXnXnXnXnX",
"nXnXnXnXnXnXnXnXnXnXnXnXnXnXnXnXnXnXnXnXnXnXnXnXnXnXnXnXnXnXnXnXnXnXnXnXnXnXnXnXnXnXnXnXnXnXnXnXnXnXnXnXnXnXnXnXnXnXnXnXnXnXnXnX",
"nXnXnXnXnXnXnXnXnXnXnXnXnXnXnXnXnXnXnXnXnXnXnXnXnXnXnXnXnXnXnXnXnXnXnXnXnXnXnXnXnXnXnXnXnXnXnXnXnXnXnXnXnXnXnXnXnXnXnXnXnXnXnXnX",
"nXnXnXnXnXnXnXnXnXnXnXnXnXnXnXnXnXnXnXnXnXnXnXnXnXnXnXa v v v n v n n p v v n nXnXnXnXnXnXnXnXnXnXnXnXnXnXnXnXnXnXnXnXnXnXnXnXnX",
"nXnXnXnXnXnXnXnXnXnXnXnXnXnXnXnXnXnXnXnXnXnXnXnXnXnX] { 6X5X5X5X5X5X5X5X5X4X=Xp nXnXnXnXnXnXnXnXnXnXnXnXnXnXnXnXnXnXnXnXnXnXnXnX",
"nXnXnXnXnXnXnXnXnXnXnXnXnXnXnXnXnXnXnXnXnXnXnXnXnXp lXhX6X$X4X4X}.4X4X4X4X4XsXzXp nXnXnXnXnXnXnXnXnXnXnXnXnXnXnXnXnXnXnXnXnXnXnX",
"nXnXnXnXnXnXnXnXnXnXnXnXnXnXnXnXnXnXnXnXnXnXnXnXnXy dX6X5X,.B.4X@.C.}.d |.4X4X5Xd nXnXnXnXnXnXnXnXnXnXnXnXnXnXnXnXnXnXnXnXnXnXnX",
"nXnXnXnXnXnXnXnXnXnXnXnXnXnXnXnXnXnXnXnXnXnXnXnXe dX6X5X5X@X{ @X#Xd 4XV.4X4X4X4XlXp nXnXnXnXnXnXnXnXnXnXnXnXnXnXnXnXnXnXnXnXnXnX",
"nXnXnXnXnXnXnXnXnXnXnXnXnXnXnXnXnXnXnXnXnXnXnXnX9 u %X&.V.4X&.#X6XXX| $XK.4X4X4X4Xq nXnXnXnXnXnXnXnXnXnXnXnXnXnXnXnXnXnXnXnXnXnX",
"nXnXnXnXnXnXnXnXnXnXnXnXnXnXnXnXnXnXnXnXnXnXnXnXe 6.OXs s s C.[ 4X5X@XH.d y +.4X4Xt nXnXnXnXnXnXnXnXnXnXnXnXnXnXnXnXnXnXnXnXnXnX",
"nXnXnXnXnXnXnXnXnXnXnXnXnXnXnXnXnXnXnXnXnXnXnXnX0 OXi /.wX/.h A XX5XC.s ;X>X1.| %Xr nXnXnXnXnXnXnXnXnXnXnXnXnXnXnXnXnXnXnXnXnXnX",
"nXnXnXnXnXnXnXnXnXnXnXnXnXnXnXnXnXnXnXnXnXnXnXO x O.<.9XvXcXU.d ,.5X[ <.yXvX9X*.O.aXe nXnXnXnXnXnXnXnXnXnXnXnXnXnXnXnXnXnXnXnXnX",
"nXnXnXnXnXnXnXnXnXnXnXnXnXnXnXnXnXnXnXnXnXnXnXO q [ >.qXvXbX;XA }.5X .<.cXbXtX*.V.aX9 nXnXnXnXnXnXnXnXnXnXnXnXnXnXnXnXnXnXnXnXnX",
"nXnXnXnXnXnXnXnXnXnXnXnXnXnXnXnXnXnXnXnXnXnXnXO i J.d <.qX,X| d 4X6X}.` ,XyX;Xs A.aX9 nXnXnXnXnXnXnXnXnXnXnXnXnXnXnXnXnXnXnXnXnX",
"nXnXnXnXnXnXnXnXnXnXnXnXnXnXnXnXnXnXnXnXnXnXnXO y J.K.b ` h 6..XB.5X=XC.{ s { }.{ 5X9 nXnXnXnXnXnXnXnXnXnXnXnXnXnXnXnXnXnXnXnXnX",
"nXnXnXnXnXnXnXnXnXnXnXnXnXnXnXnXnXnXnXnXnXnXnX@ u.p OX=X=X.XXX}.d @.=X4X#XC.$X#XB.q 9 nXnXnXnXnXnXnXnXnXnXnXnXnXnXnXnXnXnXnXnXnX",
"nXnXnXnXnXnXnXnXnXnXnXnXnXnXnXnXnXnXnXnXnXnXnXnXr .XK.5X%Xy H.@.eX' b eX}.@X#XdXB.8 nXnXnXnXnXnXnXnXnXnXnXnXnXnXnXnXnXnXnXnXnXnX",
"nXnXnXnXnXnXnXnXnXnXnXnXnXnXnXnXnXnXnXnXnXnXnXnX9 K.O.aXs f +.{ rXs j |.F h #X4XK.t nXnXnXnXnXnXnXnXnXnXnXnXnXnXnXnXnXnXnXnXnXnX",
"nXnXnXnXnXnXnXnXnXnXnXnXnXnXnXnXnXnXnXnXnXnXnXnX9 t o.=Xf Q.) j  XU U |.U U &.aX8 9 nXnXnXnXnXnXnXnXnXnXnXnXnXnXnXnXnXnXnXnXnXnX",
"nXnXnXnXnXnXnXnXnXnXnXnXnXnXnXnXnXnXnXnXnXnXnXnXnXa ..[ Y ^.E R ~.E Q.E ~.~.i J.e nXnXnXnXnXnXnXnXnXnXnXnXnXnXnXnXnXnXnXnXnXnXnX",
"nXnXnXnXnXnXnXnXnXnXnXnXnXnXnXnXnXnXnXnXnXnXnXnXnXnXm J.} [.^._ 8XR {.).).^.V.O nXnXnXnXnXnXnXnXnXnXnXnXnXnXnXnXnXnXnXnXnXnXnXnX",
"nXnXnXnXnXnXnXnXnXnXnXnXnXnXnXnXnXnXnXnXnXnXnXnXnXnXnXv s.P.U.%._.*._.c.%.Q u nXnXnXnXnXnXnXnXnXnXnXnXnXnXnXnXnXnXnXnXnXnXnXnXnX",
"nXnXnXnXnXnXnXnXnXnXnXnXnXnXnXnXnXnXnXnXnXnXnXnX0 : : : Z.A.Z.D.D.J.oX+X@X@X8 9 @ 8 9 nXnXnXnXnXnXnXnXnXnXnXnXnXnXnXnXnXnXnXnXnX",
"nXnXnXnXnXnXnXnXnXnXnXnXnXnXnXnXnXnXnXnXnXnXnXn 3X! c.:.& u = = = = > S.J.# J.F.& :Xj lXa nXnXnXnXnXnXnXnXnXnXnXnXnXnXnXnXnXnXnX",
"nXnXnXnXnXnXnXnXnXnXnXnXnXnXnXnXnXnXnXnXnXnXnXpXy ! :.;.c.% I > > 5.4.i . '.'.'.:X4 { 7Xa nXnXnXnXnXnXnXnXnXnXnXnXnXnXnXnXnXnXnX",
"nXnXnXnXnXnXnXnXnXnXnXnXnXnXnXnXnXnXnXnXnXnXnX0 B Q ;.;.:.$ u Z.Z.6.1 i.Q ;.!.!.;.1 2X4XhXd nXnXnXnXnXnXnXnXnXnXnXnXnXnXnXnXnXnX",
"nXnXnXnXnXnXnXnXnXnXnXnXnXnXnXnXnXnXnXnXnXnXnX0 B D ;.;.:.% -.S A f >XY 4 :.;.;.:.& 4X4X=XkXp nXnXnXnXnXnXnXnXnXnXnXnXnXnXnXnXnX",
"nXnXnXnXnXnXnXnXnXnXnXnXnXnXnXnXnXnXnXnXnXnXr uX .D :.;.;.Q ) ;.g `.g #.f ;.;.;.v.1 H.4X=X6XsXa nXnXnXnXnXnXnXnXnXnXnXnXnXnXnXnX",
"nXnXnXnXnXnXnXnXnXnXnXnXnXnXnXnXnXnXnXnXnXv *X..A.F -.;.:.%.! 4 3XY b.b.f :.!.;.:.< N.C.4X=X#XkX8 nXnXnXnXnXnXnXnXnXnXnXnXnXnXnX",
"nXnXnXnXnXnXnXnXnXnXnXnXnXnXnXnXnXnXnXnXnXp D.b A.B C W Z l.b.b.o x.b.k.4 -.-.-.=.i ; Z.O.4X#XjX8 nXnXnXnXnXnXnXnXnXnXnXnXnXnXnX",
"nXnXnXnXnXnXnXnXnXnXnXnXnXnXnXnXnXnXnXnXe Y.D.' D.x z.n.b.n.n.b.b.c.b.o ~ Q Q W *.$.0 A 6.N.{ 6XeXnXnXnXnXnXnXnXnXnXnXnXnXnXnXnX",
"nXnXnXnXnXnXnXnXnXnXnXnX6.u.N.V.B.8.nXnXq Y.J.J.D.q z.b.n.n.n.n.c.c.b., L.L.V.j.j.p.u ..o.@ #X4X8 nXnXnXnXnXnXnXnXnXnXnXnXnXnXnX",
"nXnXnXnXnXnXnXnXnXnXnXnXu.1X<X<X<X+X+XS J.oXXXB.q iXi f n.n.n.n.n.n.b.2 L.L.L.-.j.p.u @ nXt =X5X@ nXnXnXnXnXnXnXnXnXnXnXnXnXnXnX",
"nXnXnXnXnXnXnXnXnXnXnXnX..D.E.<X<X1X1X1X].J X.: o.q 8.{ b.n.n.n.n.b.b.1 i.i.%.p.i.p.u ; 9 A.2X5X8 nXnXnXnXnXnXnXnXnXnXnXnXnXnXnX",
"nXnXnXnXnXnXnXnXnXnXnXnXH P N M V.0.p.I.1XX.9.4.q.w.0 3 y.y.M.n.n.b.M.Z 1 % $ & $ , ; nX; D. .{ jXnXnXnXnXnXnXnXnXnXnXnXnXnXnXnX",
"nXnXnXnXnXnXnXnXnXnXnXnXnXz G I fX0.G 2 e.0.q.q.w.P V 0.w.d.w.#.Q n.n.b.l.l.l.z.k.@ nXnXn 0 u.A.8 nXnXnXnXnXnXnXnXnXnXnXnXnXnXnX",
"nXnXnXnXnXnXnXnXnXnXnXnXnXnXG G M K ].D $.gXP w.w.L L 9.2.L L w.5 d.d.g.p.l.k.0.B > nXnX9 +.d Z.@ nXnXnXnXnXnXnXnXnXnXnXnXnXnXnX",
"nXnXnXnXnXnXnXnXnXnXnXnXnXnXm H G G E.].p.xXw c c > w.d.d.a.d.d.B L L K w.m.z.R.E.W.F.x OXOXOXA ; nXnXnXnXnXnXnXnXnXnXnXnXnXnXnX",
"nXnXnXnXnXnXnXnXnXnXnXnXnXnXnXx 5.3.G 3 W.H nXnXnXnXV l M I L 2.9.f.f.d.f.f.L ^ e.e.3.Z.u J.{ Y.A  ...A z nXnXnXnXnXnXnXnXnXnXnX",
"nXnXnXnXnXnXnXnXnXnXnXnXnXnXnXnX> a.a.a.nXnXnXnXnX> V B P I B V 3 M N V 2.R.R.R.I.m.2 0 6.N.&XK.A <X+X<X .nXnXnXnXnXnXnXnXnXnXnX",
"nXnXnXnXnXnXnXnXnXnXnXnXnXnXnXnXnXH a.a.x nXnXnXnX: K J P P P P V K P J M 2 2 2 I ].# o.6.b ..A.0 N.<X<XX.nXnXnXnXnXnXnXnXnXnXnX",
"nXnXnXnXnXnXnXnXnXnXnXnXnXnXnXnXnXm a.a.a.H nXnXnX= K J W t.I ^ #.y.^ K K P K P K f nX' u.s.8.p u 7.o. .r nXnXnXnXnXnXnXnXnXnXnX",
"nXnXnXnXnXnXnXnXnXnXnXnXnXnXnXnXnXnXH a.a.5.nXnX= J P K k.l.Z z.k.h.h.k.~ ~ K K / 3X# nXe 8.' uX9 nXnXnXnXnXnXnXnXnXnXnXnXnXnXnX",
"nXnXnXnXnXnXnXnXnXnXnXnXnXnXnXnXnXnXz q.s.; nXnX= I D h.b.D V r.+   X t.l.b.b.%.g (.$ nXnXnXnXnXnXnXnXnXnXnXnXnXnXnXnXnXnXnXnXnX",
"nXnXnXnXnXnXnXnXnXnXnXnXnXnXnXnXnXnXnX9 nXnXnXnXnX2 t.n.K V M   nXz w #.C F %._.0X(.$ nXnXnXnXnXnXnXnXnXnXnXnXnXnXnXnXnXnXnXnXnX",
"nXnXnXnXnXnXnXnXnXnXnXnXnXnXnXnXnXnXnXnXnXnXnXnXnX1X6 k.K V N * nXnXnX. y.t.y.Z =.8X0X2 nXnXnXnXnXnXnXnXnXnXnXnXnXnXnXnXnXnXnXnX",
"nXnXnXnXnXnXnXnXnXnXnXnXnXnXnXnXnXnXnXnXnXnXnXnXnXnXV I I C N N ; nXnX# y.y.Z Z '.v.4 , nXnXnXnXnXnXnXnXnXnXnXnXnXnXnXnXnXnXnXnX",
"nXnXnXnXnXnXnXnXnXnXnXnXnXnXnXnXnXnXnXnXnXnXnXnXnX= y.t.y.N M N = nXnXnXnX< D M.M.Z 3X% nXnXnXnXnXnXnXnXnXnXnXnXnXnXnXnXnXnXnXnX",
"nXnXnXnXnXnXnXnXnXnXnXnXnXnXnXnXnXnXnXnXnXnXnXnXnX= V 5 , * * * nXnXnXnX# E.h.t.Z 5 4 . nXnXnXnXnXnXnXnXnXnXnXnXnXnXnXnXnXnXnXnX",
"nXnXnXnXnXnXnXnXnXnXnXnXnXnXnXnXnXnXnXnXnXnXnXnXnXnX* ~ l k l   nXnXnXnXnX- ^ 2 , ~ ~ * nXnXnXnXnXnXnXnXnXnXnXnXnXnXnXnXnXnXnXnX",
"nXnXnXnXnXnXnXnXnXnXnXnXnXnXnXnXnXnXnXnXnXnXnXnXnXnX. 1 k k l   nXnXnXnXnX- , 0.D ~ ~ . nXnXnXnXnXnXnXnXnXnXnXnXnXnXnXnXnXnXnXnX",
"nXnXnXnXnXnXnXnXnXnXnXnXnXnXnXnXnXnXnXnXnXnXnXnX> = 0.k.k k k * nXnXnXnXnXnXnX, h.~ ~ . nXnXnXnXnXnXnXnXnXnXnXnXnXnXnXnXnXnXnXnX",
"nXnXnXnXnXnXnXnXnXnXnXnXnXnXnXnXnXnXnXnXnXnXnX- f.R./ D k k k * nXnXnXnXnXnXnX, W W ~ X nXnXnXnXnXnXnXnXnXnXnXnXnXnXnXnXnXnXnXnX",
"nXnXnXnXnXnXnXnXnXnXnXnXnXnXnXnXnXnXnXnXnXnXnX* y./ ~ Z . o l * nXnXnXnXnXnX: b.=./ 5   nXnXnXnXnXnXnXnXnXnXnXnXnXnXnXnXnXnXnXnX",
"nXnXnXnXnXnXnXnXnXnXnXnXnXnXnXnXnXnXq.q.q.e.9.3 * * , o P P . 3 3.9.9.3.3.  D.#.( ( X L 3.3.4.nXq.q.q.nXnXnXnXnXnXnXnXnXnXnXnXnX",
"nXnXnXnXnXnXnXnXnXnXnXnXnXnXnXnX4.q.9.q.q.9.9.q.e.e.q.9.q.4.q.q.9.q.3.3.3.a.  $ , 3 q.4.3.3.4.4.q.4.q.q.q.q.nXnXnXnXnXnXnXnXnXnX",
"nXnXnXnXnXnXnXnXnXnXnXnXnXnXnXnXnXnXnXnXnXnXnXnXnXnXnXnXnXnXnXnXnXnXnXnXnXnXnXnXnXnXnXnXnXnXnXnXnXnXnXnXnXnXnXnXnXnXnXnXnXnXnXnX",
"nXnXnXnXnXnXnXnXnXnXnXnXnXnXnXnXnXnXnXnXnXnXnXnXnXnXnXnXnXnXnXnXnXnXnXnXnXnXnXnXnXnXnXnXnXnXnXnXnXnXnXnXnXnXnXnXnXnXnXnXnXnXnXnX",
"nXnXnXnXnXnXnXnXnXnXnXnXnXnXnXnXnXnXnXnXnXnXnXnXnXnXnXnXnXnXnXnXnXnXnXnXnXnXnXnXnXnXnXnXnXnXnXnXnXnXnXnXnXnXnXnXnXnXnXnXnXnXnXnX",
"nXnXnXnXnXnXnXnXnXnXnXnXnXnXnXnXnXnXnXnXnXnXnXnXnXnXnXnXnXnXnXnXnXnXnXnXnXnXnXnXnXnXnXnXnXnXnXnXnXnXnXnXnXnXnXnXnXnXnXnXnXnXnXnX",
"nXnXnXnXnXnXnXnXnXnXnXnXnXnXnXnXnXnXnXnXnXnXnXnXnXnXnXnXnXnXnXnXnXnXnXnXnXnXnXnXnXnXnXnXnXnXnXnXnXnXnXnXnXnXnXnXnXnXnXnXnXnXnXnX"
};
