/* XPM */
static char *wall_west[] = {
/* columns rows colors chars-per-pixel */
"64 38 234 2 ",
"   c #130E0D",
".  c #180E0B",
"X  c #16110F",
"o  c #1A1512",
"O  c #0E0D09",
"+  c #27110F",
"@  c #241513",
"#  c #2A1313",
"$  c #2C1C1A",
"%  c #261A18",
"&  c #331915",
"*  c #321C1A",
"=  c #3C1D1B",
"-  c #381815",
";  c #300F0D",
":  c #29211D",
">  c #34211E",
",  c #3A211E",
"<  c #2E2622",
"1  c #352522",
"2  c #3A2926",
"3  c #3D3531",
"4  c #3A312D",
"5  c #441A15",
"6  c #461C18",
"7  c #5E1E15",
"8  c #4C100A",
"9  c #661915",
"0  c #6D150E",
"q  c #43241F",
"w  c #4D241C",
"e  c #55241C",
"r  c #58261B",
"t  c #65271D",
"y  c #77251D",
"u  c #71311D",
"i  c #432422",
"p  c #4C2A26",
"a  c #4C2E29",
"s  c #472824",
"d  c #552C25",
"f  c #48322F",
"g  c #57342D",
"h  c #453B36",
"j  c #4D3D39",
"k  c #443934",
"l  c #593B38",
"z  c #652D23",
"x  c #6B2C22",
"c  c #792A24",
"v  c #64332A",
"b  c #69352A",
"n  c #693429",
"m  c #72392B",
"M  c #783626",
"N  c #6C3C33",
"B  c #643A33",
"V  c #793E32",
"C  c #4B423C",
"Z  c #58423D",
"A  c #6A4339",
"S  c #7A4033",
"D  c #77453A",
"F  c #564943",
"G  c #59524A",
"H  c #474941",
"J  c #674B46",
"K  c #6B524D",
"L  c #71534E",
"P  c #665953",
"I  c #765B55",
"U  c #764B44",
"Y  c #576459",
"T  c #69635B",
"R  c #78645D",
"E  c #676A61",
"W  c #68766B",
"Q  c #767269",
"!  c #7A7068",
"~  c #931A18",
"^  c #AE1C1C",
"/  c #822D1D",
"(  c #862623",
")  c #843B29",
"_  c #863E32",
"`  c #97382B",
"'  c #B92725",
"]  c #B53F2D",
"[  c #AF3231",
"{  c #CC2626",
"}  c #D0362E",
"|  c #8B412C",
" . c #834435",
".. c #8A493B",
"X. c #894838",
"o. c #964B36",
"O. c #9A533E",
"+. c #93452B",
"@. c #AB4D2A",
"#. c #A6502D",
"$. c #A84937",
"%. c #A85639",
"&. c #B55837",
"*. c #986231",
"=. c #AD663F",
"-. c #D25334",
";. c #CA6639",
":. c #D66C3E",
">. c #CD7339",
",. c #EE7C3E",
"<. c #E3733B",
"1. c #F47C36",
"2. c #F37B3C",
"3. c #F87A38",
"4. c #E95831",
"5. c #884B41",
"6. c #8F5040",
"7. c #955242",
"8. c #9B5745",
"9. c #845950",
"0. c #965749",
"q. c #A55A44",
"w. c #B25D42",
"e. c #AC5755",
"r. c #85635C",
"t. c #9D6358",
"y. c #A9644B",
"u. c #B76448",
"i. c #AB6B54",
"p. c #B36B53",
"a. c #B4725A",
"s. c #876B65",
"d. c #84746D",
"f. c #8A7169",
"g. c #857B74",
"h. c #92786F",
"j. c #BC7961",
"k. c #AB7466",
"l. c #C65447",
"z. c #C76A45",
"x. c #D46D41",
"c. c #C87249",
"v. c #DB7342",
"b. c #D57545",
"n. c #C87758",
"m. c #D57B55",
"M. c #ED7D43",
"N. c #E47842",
"B. c #F37B41",
"V. c #E06D41",
"C. c #C87E60",
"Z. c #728D7D",
"A. c #F08435",
"S. c #F3A138",
"D. c #9A805B",
"F. c #A7855C",
"G. c #8D8078",
"H. c #92827A",
"J. c #9C827C",
"K. c #B18478",
"L. c #D7825C",
"P. c #CB9651",
"I. c #EA824B",
"U. c #E38757",
"Y. c #EE925B",
"T. c #F2AF4B",
"R. c #C88264",
"E. c #D58965",
"W. c #DE9068",
"Q. c #C78977",
"!. c #D1987B",
"~. c #E59468",
"^. c #E39873",
"/. c #E48E62",
"(. c #CBA073",
"). c #EAA67F",
"_. c #E8BE6D",
"`. c #F5D270",
"'. c #6D9984",
"]. c #9E8B84",
"[. c #98978C",
"{. c #A5948B",
"}. c #BA9385",
"|. c #AB9C94",
" X c #B0978E",
".X c #8AA897",
"XX c #90AC9C",
"oX c #ABA39A",
"OX c #A9A499",
"+X c #B4A099",
"@X c #BDA79B",
"#X c #9DB6A7",
"$X c #BBACA5",
"%X c #B7B5AB",
"&X c #ACB7AA",
"*X c #D59B83",
"=X c #D0AA93",
"-X c #E7A885",
";X c #E7B397",
":X c #C6B5AA",
">X c #C8BAB2",
",X c #CCB4AA",
"<X c #B6C5B7",
"1X c #F7D481",
"2X c #E1CB8F",
"3X c #CCC3BB",
"4X c #C9C2B6",
"5X c #D7C5B8",
"6X c #EEDDAA",
"7X c #F2DCA6",
"8X c #E2C9BC",
"9X c #E3C6A9",
"0X c #F2E2B3",
"qX c #BBD1C3",
"wX c #D3CBC3",
"eX c #DACCC4",
"rX c #C5D8CB",
"tX c #DBD4CC",
"yX c #DAD1C7",
"uX c #DDDCD2",
"iX c #DED7D1",
"pX c #C1CFC3",
"aX c #E3D6CC",
"sX c #E3DDD4",
"dX c #E7DDD6",
"fX c #DEE4DC",
"gX c #E5E3DB",
"hX c #EBE4DC",
"jX c #E6E4DA",
"kX c #F0E5DC",
"lX c #EEEAE3",
"zX c #EBE8E1",
"xX c #F1EBE5",
"cX c #F2EEE9",
/* pixels */
"2.2.2.2.2.2.2.2.2.2.2.2.2.2.2.2.2.2.2.2.2.2.2.2.2.2.B.B.,.2.B.v.v.;.@.;.N.,.B.2.B.B.3.2.2.2.2.2.2.2.2.2.2.2.2.2.2.2.2.2.2.2.2.2.",
"2.2.2.2.2.2.2.2.2.2.2.2.2.2.2.2.2.2.2.2.2.2.2.2.2.2.1.2.<.#.) 5 - = & q w ) :.A.1.B.B.2.2.2.2.2.2.2.2.2.2.2.2.2.2.2.2.2.2.2.2.2.",
"2.2.2.2.2.2.2.2.2.2.2.2.2.2.2.2.2.2.2.2.2.2.2.2.B.2.2.x.d * $ 1 # : @ 2 % o d &.2.3.2.2.2.2.2.2.2.2.2.2.2.2.2.2.2.2.2.2.2.2.2.2.",
"2.2.2.2.2.2.2.2.2.2.2.2.2.2.2.2.2.2.2.2.2.2.2.M.2.A.:.w $ X 1 , % 1 * d $ % > q o.,.2.2.2.2.2.2.2.2.2.2.2.2.2.2.2.2.2.2.2.2.2.2.",
"2.2.2.2.2.2.2.2.2.2.2.2.2.2.2.2.2.2.2.2.2.2.2.2.B.&.w % s O % s % s A i.$ % : $ q ) 2.1.2.2.2.2.2.2.2.2.2.2.2.2.2.2.2.2.2.2.2.2.",
"2.2.2.2.2.2.2.2.2.2.2.2.2.2.2.2.2.2.2.2.2.2.2.2.&.q 2 o 1 X q a > s X.R.a > i 1 > & >.2.1.,.2.2.2.2.2.2.2.2.2.2.2.2.2.2.2.2.2.2.",
"2.2.2.2.2.2.2.2.2.2.2.2.2.2.2.2.2.2.2.2.2.2.M.2.t * f $ : . 5 e , s A !.p , g a , $ ) M.3.2.2.2.2.2.2.2.2.2.2.2.2.2.2.2.2.2.2.2.",
"2.2.2.2.2.2.2.2.2.2.2.2.2.2.2.2.2.2.2.2.2.B.1.;.& . > > # ; e.M l K U -Xg $ N g p $ # x.2.2.2.2.2.2.2.2.2.2.2.2.2.2.2.2.2.2.2.2.",
"2.2.2.2.2.2.2.2.2.2.2.2.2.2.2.2.2.2.2.2.2.2.M.M @   > q f 9.k.m i.5X9.8XJ i A g g 2 o ) B.2.2.2.2.2.2.2.2.2.2.2.2.2.2.2.2.2.2.2.",
"2.2.2.2.2.2.2.2.2.2.2.2.2.2.2.2.2.2.2.2.2.2.x.#     , B B c ( ( } [ y Q.K.l 9.B V = < e @.M.2.2.2.2.2.2.2.2.2.2.2.2.2.2.2.2.2.2.",
"2.2.2.2.2.2.2.2.2.2.2.2.2.2.2.2.2.2.2.2.2.2.+.*   o # e e 7 9 y 0 7 c [ 7.a U  .t.U d c x.;.2.2.2.2.2.2.2.2.2.2.2.2.B.2.2.2.2.2.",
"2.2.2.2.2.2.2.2.2.2.2.2.2.2.2.2.2.2.2.2.2.B.z = o @ = d z x r 8 5 8 ^ l.q.N 9 y ( ] ( _ x.,.2.2.2.2.2.2.2.2.2.2.2.2.2.2.2.2.2.2.",
"2.2.2.2.2.2.2.2.2.2.2.2.2.2.2.2.2.2.2.2.2.x.6 + % & i t M ) ) t 7 8 ] V.L.( 0 ~ { { l.9.%.B.2.2.2.2.2.2.2.2.2.2.2.2.2.2.2.2.2.2.",
"2.2.2.B.2.2.2.2.2.2.2.2.2.2.2.2.2.2.2.2.2.&.- X @ - z | &.z.m.n.a.$.c.L.;X8.9 ~ ' { { d M B.2.2.2.2.2.2.2.2.2.2.2.2.2.2.2.2.2.2.",
"2.2.2.2.2.2.2.2.2.2.2.2.2.2.2.2.2.1.2.1.2.m 1 + X @ b q.z.m.~.-X-Xq.S n j.u./ ( ' ' ( i _ 2.2.2.2.2.2.2.2.2.2.2.2.2.2.2.2.2.2.2.",
"2.2.2.2.2.2.2.2.2.2.2.2.2.2.2.2.2.B.2.,.:.z = b # = v q.w.z.U.~.W.m.n.R.F.u.W.&.] t - b &.2.2.2.2.2.2.2.2.2.2.2.2.2.2.2.2.2.2.2.",
"2.2.2.2.2.2.2.2.2.2.2.2.2.2.2.2.2.2.2.2.<.$.r %.& i b O.q.w.z.c.w.%.q.K.p.E.-X~.;.= . _ @.2.2.2.2.2.2.2.2.2.B.2.2.2.2.2.2.2.2.2.",
"2.2.2.2.2.2.2.2.2.2.2.2.2.2.2.2.2.2.2.B.2.<.&.` @ d V ..q.w.w.o.D 6.0.e.Q.C./.U.$.6 p  .;.2.2.2.2.2.2.2.2.2.2.2.2.2.2.2.2.2.2.2.",
"2.2.2.2.2.2.2.2.2.2.2.2.2.2.2.2.2.2.2.2.2.B.B.+.* N ....O.q.q.p.8.k.=X*XM 8.p.b.M x V c v.3.2.2.2.2.2.2.2.2.2.2.2.2.2.2.2.2.2.2.",
"2.2.2.2.2.2.2.2.2.2.2.2.2.2.2.2.2.2.2.2.2.2.2.b.; N X.....7.q.e.8.O.j.;X=Xq.u.&.) %.;.N.1.B.2.2.2.2.2.2.2.2.2.2.2.2.2.2.2.2.2.2.",
"2.2.2.2.2.2.2.2.2.2.2.2.2.2.2.2.2.2.2.2.2.,.1.%.# N V V X...7.%.$.o.X.V O.n.w.o.d C.,.2.B.2.2.2.2.2.2.2.2.2.2.2.2.2.2.2.2.2.2.2.",
"2.2.2.2.2.2.2.2.2.2.2.2.2.2.2.2.2.2.2.2.2.2.<.X.6 .. .m n S q.u.u.E.^.m.z.u.o.q.N h.7.M.2.2.2.2.2.2.2.2.2.2.2.2.2.2.2.2.2.2.2.2.",
"2.2.2.2.2.2.2.2.2.2.2.2.2.2.2.2.2.2.2.2.2.2.;.V n 6. .N x x ..O.o.u.C.L.>.z.D.;Xf.J v v.2.2.2.2.2.2.2.2.2.2.2.2.2.2.2.2.2.2.2.2.",
"2.2.2.2.2.2.2.2.2.2.2.2.2.2.2.2.2.2.2.2.2.M.o.+ # X...S v p w v n M | q.c.1X0X=X+XJ.U &.2.2.2.2.2.2.2.2.2.2.2.2.2.2.2.2.2.2.2.2.",
"2.2.2.2.2.2.2.2.2.2.2.2.2.2.2.2.2.2.2.1.A._ 6 8 7 ......b q , & q d ) >.1X6X5Xd.f.9.U q.2.M.2.2.2.2.2.2.2.2.2.2.2.2.2.2.2.2.2.2.",
"2.2.2.2.2.2.2.2.2.2.2.2.2.2.2.2.2.2.2.,.#.` @.-.-.$... .z , & % # t P.1X0XuXaXaX Xr.s.N I.2.2.2.2.2.2.2.2.2.2.2.2.2.2.2.2.2.2.2.",
"2.2.2.2.2.2.2.2.2.2.2.2.2.2.2.2.2.B.B.1.#.A.4.} } ` X.V d % & , *.T._.D.3XzXjXjXeX>XR g /.1.2.2.2.2.2.2.2.2.2.2.2.2.2.2.2.2.2.2.",
"2.2.2.2.2.2.2.2.2.2.2.2.2.2.2.2.2.2.2.M.7 S.A.-.[ _ o.S w , w F.`.6XaXoXuXlXlXkXjXjXeXL ^.1.2.2.2.2.2.2.2.2.2.2.2.2.2.2.2.2.2.2.",
"2.2.2.2.2.2.2.2.2.2.2.2.2.2.2.2.2.2.,.u.> =.T.A.u t +.m v m W.7X>XzXcXxXcXcXcXsXaXyXiXwXE.2.2.2.2.2.2.2.2.2.2.2.2.2.2.2.2.2.2.2.",
"2.2.2.2.2.2.2.2.2.2.2.2.2.2.2.2.2.2.,.c.A s.!.2XF.- z A K.@XZ.4XhXhXaXeX3X3X>XoX! C P ! i.2.2.2.2.2.2.2.2.2.2.2.2.2.2.2.2.2.2.2.",
"2.2.2.2.2.2.2.2.2.2.2.2.2.2.2.2.2.2.3.,.a.T &XZ.[.T Z P Q T C G {.h.T P h H T T %X>X>X5X>X^.M.B.2.2.2.2.2.2.2.2.2.2.2.2.2.2.2.2.",
"2.2.2.2.2.2.2.2.2.2.2.2.2.2.2.2.2.2.2.x.O.K P 3 Y P 4 f 4 G {.H.[.Q Y E W [.%XOX].,X:X@X:X8X;XN.2.2.2.2.2.2.2.2.2.2.2.2.2.2.2.2.",
"2.2.2.2.2.2.2.2.2.2.2.2.2.2.2.2.2.2.$.= k.l j h 4 < o 3 F P g.$XyX%XXX'.XX.X'.Z.%XlXhX:Xd.{.4X5X/.2.2.3.2.2.2.2.2.2.2.2.2.2.2.2.",
"2.2.2.2.2.2.2.2.2.2.2.2.2.2.2.B.B.u.i p =Xf j R R F < 1 C ! $XdXlXcXrX'.rXfXpX<XaXhXhXzXdX$X4XwXoX!.I.3.,.2.2.2.2.2.2.2.2.2.2.2.",
"2.2.2.2.2.2.2.2.2.2.2.2.2.2.2.M.q.t.9.}. X@ C L @XC g.|.J.$XxXlXcXcXsXwXwXlXgXgX{.aXdXxXcXgX$X:XOX&X9XI.1.2.2.2.2.2.2.2.2.2.2.2.",
"2.2.2.2.2.2.2.2.2.2.2.2.2.2.A.&.I }.8X,XL O G [.>Xh ,X$X>XwXzXdXtXzXzXf.F ].uX4XQ ].s.{.%XpXuXcXyX[.&XU.2.2.2.2.2.2.2.2.2.2.2.2.",
"2.2.2.2.2.2.2.2.2.2.2.2.2.,.M.0.4 % l L * o E |.! ! yXlXlXlXzXlXzXtXcXeXR L l g.oX].T +XoX#X'.qXuXuX<XU.,.1.2.2.2.2.2.2.2.2.2.2.",
"2.2.2.2.2.2.2.2.2.2.2.2.2.2.U.r.C : J F X ! {.+XG h. XtXhXzXhXhXxXcXsXg.I B f 1 P g.dXxXfXXX[.qX&XuXjXY.1.,.2.,.2.2.2.2.2.2.2.2."
};
