/* XPM */
static char *cc3ede2a357747f5f576b67078fc73b5qVz8SsTVs08YEtnl[] = {
/* columns rows colors chars-per-pixel */
"64 64 187 2 ",
"   c #3F0612",
".  c #3F0815",
"X  c #45070E",
"o  c #49060E",
"O  c #44090E",
"+  c #4A0A0E",
"@  c #540A0E",
"#  c #5C0C0D",
"$  c #53120E",
"%  c #59130F",
"&  c #5E1C0F",
"*  c #430614",
"=  c #4B0712",
"-  c #440914",
";  c #4B0B12",
":  c #410619",
">  c #410819",
",  c #520C12",
"<  c #5A0C11",
"1  c #4E1014",
"2  c #541212",
"3  c #5B1513",
"4  c #5D1913",
"5  c #620D0D",
"6  c #690F0C",
"7  c #691307",
"8  c #64110D",
"9  c #6C130D",
"0  c #61180F",
"q  c #6E190E",
"w  c #72160D",
"e  c #741A0D",
"r  c #791D0D",
"t  c #610F10",
"y  c #621613",
"u  c #6D1611",
"i  c #621914",
"p  c #6B1E14",
"a  c #611A18",
"s  c #731512",
"d  c #731C11",
"f  c #7A1E10",
"g  c #72220F",
"h  c #7C210F",
"j  c #672015",
"k  c #6D2314",
"l  c #6F2817",
"z  c #6D2A1B",
"x  c #742414",
"c  c #7C2312",
"v  c #722D16",
"b  c #7D2A15",
"n  c #732C19",
"m  c #7C2D19",
"M  c #773115",
"N  c #7A3215",
"B  c #7E3916",
"V  c #773119",
"C  c #7B3219",
"Z  c #81240F",
"A  c #832B0F",
"S  c #8B2E0E",
"D  c #8D330F",
"F  c #8E390E",
"G  c #90370E",
"H  c #903A0D",
"J  c #822612",
"K  c #842C14",
"L  c #8B2E13",
"P  c #842B19",
"I  c #892F19",
"U  c #863212",
"Y  c #833415",
"T  c #8B3110",
"R  c #8B3111",
"E  c #8A3211",
"W  c #8B3112",
"Q  c #8D3010",
"!  c #8C3110",
"~  c #8D3110",
"^  c #8C3011",
"/  c #8D3011",
"(  c #8C3111",
")  c #8D3111",
"_  c #8E3010",
"`  c #8F3010",
"'  c #8E3110",
"]  c #8E3111",
"[  c #8D3211",
"{  c #8E3210",
"}  c #8F3210",
"|  c #8E3211",
" . c #8C3012",
".. c #8D3012",
"X. c #8C3112",
"o. c #8D3112",
"O. c #8C3013",
"+. c #8D3013",
"@. c #8D3113",
"#. c #8E3112",
"$. c #8E3113",
"%. c #8C3213",
"&. c #8F3213",
"*. c #8D3510",
"=. c #8E3410",
"-. c #8E3510",
";. c #8E3511",
":. c #8F3413",
">. c #893014",
",. c #8B3114",
"<. c #8B3115",
"1. c #8B3215",
"2. c #893317",
"3. c #8C3014",
"4. c #8D3014",
"5. c #8C3015",
"6. c #8C3115",
"7. c #8C3214",
"8. c #8C3215",
"9. c #8D3215",
"0. c #8C3116",
"q. c #8C3216",
"w. c #8D3216",
"e. c #8D3217",
"r. c #8E3115",
"t. c #8D3012",
"y. c #843916",
"u. c #8C3817",
"i. c #893D16",
"p. c #8D3E15",
"a. c #8F3D17",
"s. c #8D3F16",
"d. c #8C3C15",
"f. c #823719",
"g. c #8A3118",
"h. c #8A3119",
"j. c #8A3218",
"k. c #8E3118",
"l. c #8A3118",
"z. c #87391D",
"x. c #843A19",
"c. c #8F3E18",
"v. c #8F3F1A",
"b. c #8B3E19",
"n. c #903412",
"m. c #903511",
"M. c #913612",
"N. c #903D14",
"B. c #923B12",
"V. c #933F18",
"C. c #943F18",
"Z. c #8F4217",
"A. c #8D4116",
"S. c #8C4018",
"D. c #8C4119",
"F. c #944411",
"G. c #934014",
"H. c #914315",
"J. c #964515",
"K. c #924316",
"L. c #984316",
"P. c #984514",
"I. c #984715",
"U. c #9A4513",
"Y. c #954917",
"T. c #9B4911",
"R. c #994912",
"E. c #994913",
"W. c #994813",
"Q. c #9B4812",
"!. c #9B4813",
"~. c #9A4913",
"^. c #9B4912",
"/. c #9A4A13",
"(. c #994914",
"). c #9A4814",
"_. c #9A4915",
"`. c #984A14",
"'. c #994916",
"]. c #9A4A16",
"[. c #9B4814",
"{. c #914218",
"}. c #9C471A",
"|. c #9E471B",
" X c #974919",
".X c #98481A",
"XX c #98491A",
/* pixels */
"(.(.(.(.Q.Q.Q.Q.(.(.Q.Q.Q.Z.; * + K.Q.Q.Q.Q.Q.Q.Q.Q.Q.J.o 6 (.Q.Q.(.XX+ * * U P.(.(.(.(.(.(.(.F.9 = # = * * * ; s.(.(.Q.Q.Q.Q.Q.",
"( ( ( ( ( ( ( ( ( ( ( ( ( ( K 2 S.( ( ( ( ( ( ( ( ( ( ( L L ( ( ( ( L I - # K.D ( ( ( ( ( ( ( ( V.9 5 5 # - ; i.n.( ( D D ( ( ( ",
"L L L L ( ( ( ( ( ( ( ( ( ( K 2 v.n.L ( ( ( ( ( ( ( ( ( ( ( ( ( ( ( ( W - X 7 L ( ( ( ( ( ( ( W -.C.9 9 u.8 , s.-.W W ( ( ( ( ( ",
"L L L L ( ( W W ( L ( ( ( ( K 2 K ( L L ( ( ( ( ( ( ( ( ( ( ( ( ( ( ( 8.= K L ( ( ( ( ( ( ( ( W L 7 7 N.-.J , b D W W ( ( ( ( ( ",
"( ( ( ( W W ( ( ( ( ( ( ( ( K 2 v.D ( ( ( ( ( ( ( ( ( ( ( ( ( ( ( ( ( ( - 5 L L ( ( ( ( ( ( ( ( ( L.P.-.( K ; + s.-.W ( ( ( ( ( ",
"( ( ( ( ( W ( ( ( ( ( 8.( L 6 + U ( ( ( L L ( ( ( ( ( ( ( ( ( 8.( L ( ,.- - K ( 8.( ( ( ( ( ( ( ( ( ( ( 8.K 2 z.-.( ( ( ( ( ( ( ",
"( ( ( ( ( ( ( ( 8.L L w J 9 5 ; K 8.L ( ( L 9 9 K ( L L ( ( ( 9 ,.L ( ,.- * P L w L W ( ( ( ( ( ( ( ( L w b 2 K ( ( ( |.( ( ( 8.",
"8.8.8.8.8.8.8.K 9 9 5 , 8 5 - * ; y , 5 5 5 ; - y 9 ,.8.8.8.j.o 9 L ,.; : * 9 b < J w L 8.8.8.8.8.8.L y ; - - ; P k.L ; ; j.j.; ",
"+ ; ; ; ; ; - - - - *   * - * * * * - - - * * * - - - - - + - - X ; ; * * * - - - ; - ; + + ; - - ; ; - * * * * - + + - * - - * ",
"Z.K.K.K.K.K.x.+ * ; x.K.x.$ x.z.$ b.{.Z.Z.Z.{.{.S.b.* * - S.{.{.Z.K.K.K.K.{.K.K.Z.K.K.K.{.x.+ * ; x.{.{.K.Z.Z.K.{.K.{.S.O . X S.",
"n.n.:.:.:.:.-.x.2 x.-.( -.v.:.:.N.*.( ( ( ( ( -.( ( P O D.-.( D D !.D D D |.D -.-.n.L.n.( ( b , x.:.-.D n.L.-.( D D G P.b - J 8.",
"( ( W W W W K 9 $ Z.D S D ( W ( -.D L L ( ( W W W W L O Y.D W W W D 8.,.,.D W ,.,.W -.W D L P $ Z.-.W W W -.( W ( ( ( ( ,.X ,.( ",
"( ( ( ( ( ( K 5 2 Z.( W ( ( ( ( ( ( ( ( ( ( ( ( ( ( L ;  X( ( ( ( ( ( L ( ( ( ( ( ( L ( ( ( K 2 Z.-.( ( ( ( ( ( ( ( ( W ,.- j.( ",
"( ( ( ( ( ( K 5 2 s.( ( ( ( ( ( ( ( ( ( ( ( ( ( ( ( L ; XX( ( ( ( ( ( L ( ( ( ( ( ( L ( ( ( K 2 s.( ( ( ( ( ( ( ( ( ( W L - j.( ",
"( ( ( ( ( L J 5 2 s.( ( ( ( ( ( ( ( ( ( L L L L ( ( K ; .X( ( ( ( ( ( ( ( ( L L W ( ( ( ( L K , U ( ( ( ( ( ( ( ( ( ( ( L O L ( ",
"( ( ( L L L 9 = ; b L ( ( L L L L ( ( L L J w K L L b - U ( ( ( ( ( L ( ( ( K w K ( ( L L W b ; b ( ( ( ( ( ( L L ( L L J O K ( ",
"L L K 9 P 9 # - * 2 J L K J 9 9 J L K J u , ; 8 9 y ; * 2 K L L L K 9 L L K b @ 9 J J w u b 2 - 2 b K L L L J w J K 2 y , * 1 K ",
"3 3 3 , 3 , ; ; ; ; 2 2 2 2 , , 2 2 3 3 , ; ; , , , ; ; ; 3 3 , , , , 3 3 3 3 ; , 3 3 , , 3 ; ; ; 3 3 2 , , , , 3 3 ; , ; ; - 3 ",
"y.y.y.y.y.y.y.y.y.y.C 1 * 1 B y.f.2 C x.x.y.y.y.y.y.y.y.y.y.x.- * ; f.y.y.y.y.y.y.y.y.x.x.y.y.y.y.y.B 1 * * 1 V x.y.y.y.y.y.y.y.",
"n.-.-.U.B.D U.*.:.-.-.x 1 f.*.n.n.J -.P.U.B.U.B.B.B.B.B.-.-.M.c - x.n.n.-.n.-.n.-.B.U.B.U.U.B.n.n.n.-.x - , C -.D D U.G n.n.n.n.",
"( ( L n.( ( -.( ( ( ( J 3 {.( ( ( ( ( n.-.( n.( ( ( ( ( ( ( ( W - J.L ( W ( ( ( ( ( -.( -.n.( ( ( ( ( J 2 C u.( ( ( n.( ( ( ( ( ",
"( ( L ( ( ( W ( ( ( ( K 3 {.( ( ( ( L L ( ( L ( ( ( ( ( ( ( ( W - {.e L W ( ( ( ( W W ( L 8.( ( ( ( ( J 3 b.( ( ( ( ( ( ( ( ( ( ",
"( ( ( ( ( ( ( ( ( ( ( b 3 {.( ( ( ( ( ( ( ( ( ( L ( ( ( ( ( ( ,.- 4 J L W ( ( ( ( ( ( ( ( ( ( L L ( ( J ; 4 K ( ( ( ( ( ( ( ( ( ",
"( ( ( ( ( ( ( ( ( ( L 3 1 Z.( ( ( ( ( ( ( ( ( ( ( L L ( 8.8.( W - # U e L ( ( ( ( ( ( ( ( ( ( L r L L J ; ; J L ( ( ( ( ( ( ( ( ",
"( ( ( ( ( ( ( ( ( ( K < ; U W ( ( ( ( ( ( ( ( ( ( L e L W 8.( L - ; q J s L L 8.,.L L L L L L ( ,.e w c , k K L L ( ( ( ( ( ( ( ",
"L L L L L L L L L K u , - 3 K ,.L L L L L L L L L L c 3 3 K K 3 - * ; K , q y K K q y 9 d K L W u.Y , 2 - 2 3 3 J L L L L L L L ",
"2 2 2 2 2 2 2 2 2 , ; - * - ; ; , , ; ; ; ; , , , , + * - , , - * - * ; * ; - , , ; - ; ; ; ; ; 2 2 - * * * - - ; 2 ; ; ; ; ; ; ",
"S.S.S.b.b.b.b.S.S.S.S.i.y.8 # 5 < = * ; # # 5 5 5 5 # # # # # 5 i.b.- * O y.S.i.i.i.S.i.i.S.S.S.S.S.S.S.i.i.s.S.S.z.- * - b.v.v.",
"-.Q.(.-.-.-.-.-.B.J.n.-.-.K K K K c ; C L K K K K K K K K K K K D -.m - x.-.-.D F U.U.n.B.F.-.n.n.G U.n.-.-.-.-.( -.b - b.-.-.-.",
"( -.-.( ( ( ( ( ( -.( ( ( L ( ( ( K 2 Z.( ( ( ( ( ( ( ( ( ( ( ( ( ( ,.X XX( L ( ( -.-.( ( -.( ( ( ( -.( ( ( ( L L ( K + XX( ( ( ",
"( ( ( ( ( ( ( ( ( ( ( ( ( ( ( ( ( K 2 v.8.( L L ( L ( ( ( ( ( ( ( ( ,.X  X( W ( ( ( ( ( ( ( ( ( ( ( ( ( ( ( ( ( L L L +  XL L ( ",
"( ( ( ( ( ( ( ( ( ( ( ( ( ( ( ( L 3 ; s.( L ( L ( L ( ( ( ( ( ( ( ( ,.X  X( ( ( ( ( ( ( ( ( ( ( ( ( ( ( ( ( ( ( L L K +  XL L ( ",
"( ( ( ( ( ( ( ( ( ( ( ( ( ( ( 8.K t ; s.( ( ( ( L r 8.( ( ( ( ( ( ( ,.- $ L ( ( ( ( ( ( ( ( ( ( ( ( ( ( ( ( ( ( ( L L * % ,.W ( ",
"( ( ( ( ( ( ( ( ( ( ( ( ( L r L ,.b , U W ( L e w J ( ( ( ( 8.( ( L 9 X x ,.( ( ( ( ( ( ( ( ( ( ( ( ( ( ( ( ( ( ( L 9 * < 8.( ( ",
"( ( ( ( ( ( ( ( ( ( ( ( ( L J w 9 2 - 3 J w 9 , 5 w 8.8.8.L 2 L w 9 ; - , L ,.8.8.8.8.8.8.8.8.L 9 3 K ( ( L ( L e 9 ; > ; s 8.( ",
"2 2 2 2 $ 2 2 2 2 2 2 2 2 2 , ; ; * * - , ; + * ; = 2 2 2 2 * 2 + + - * * , 2 2 2 2 2 2 2 2 2 2 ; - 2 2 2 2 2 2 ; ; * * * = 2 2 ",
"x.f.f.f.B - B f.V -   ; V x.f.f.f.f.f.x.x.x.V ; * - x.f.x.f.f.f.f.f.f.f.f.- * ; C f.f.f.f.f.f.f.x.f.f.f.V ; * - v f.f.f.f.B O C ",
"B.B.B.M.& B -.n.-.x 2 N *.*.-.G L.G *.B.B.n.-.x ; m -.-.-.-.F |.B.B.[.G n.x 1 C -.G U.Q.U.H U.B.*.B.B.*.-.x 1 V *.F [.[.F *.f.B.",
"( ( ( ( Y :.( L ( J 3 v.n.L L ( M.( ( ( ( ( ( K 2 i.L L ( ( L M.( ( n.( ( ,.2 S.( W M.B.n.( M.( ( ( ( ( ( K 2 b.-.( G G W W n.( ",
"( ( ( ( n.( ( ( ( J 3 v.-.( L ( ( ( ( ( ( ( ( K 2 i.L L ( ( L ( ( ( ( ( ( 8.; i L ( ( ( ( 8.( ( ( ( ( ( ( K 2 i.( ( ( ( ( 8.( ( ",
"( ( ( ( L L ( ( ( J 3 v.-.W ( ( ( L ( ( ( ( ( K 2 i.L ( ( ( ( ( ( ( ( ( ( 8.2 C W ( ( ( ( ( ( ( ( L L ( ( K 2 i.( ( ( ( ( ( ( ( ",
"( ( ( ( L L ( ( ( J 2 U ( ( 8.8.( ( ( ( ( ( ( K 2 U ( ( ( ( ( ( ( ( ( ( ( 8.; a L 8.( ( ( ( ( ( ( ( L L ( J 2 s.( ( ( ( ( ( ( ( ",
"( ( ( ( L L ( ( ( J 2 J ( ( L y K ( ( ( W ( ( L 2 J ( ( W ( ( ( ( ( W ( ( 8.; - 2 4 K 8.( ( ( ( ( ( ( ( ( K 2 U ( ( ( ( L L ( ( ",
"( ( ( ( ( ( ( ( ( J 2 K ( ( W N y w L ( ( ( ( K , b 0 8.( ( ( ( L w W ( ( ,.; 3 N B W ( ( ( ( ( ( ( ( ( L u ; u L ( ( ( ( ( ( ( ",
"( ( ( ( 8.8.8.( L 3 - 4 K W ( B.m 2 4 d L ( K i - 2 - w w e ( 8.j.@ w 8.8.3 - , c :.8.8.( 8.8.8.L f y K d @ - , J r 8.W e e e 8.",
"3 3 3 3 3 4 4 4 2 - * - 3 4 4 4 4 - * , 3 3 3 - * * - , = ; 3 3 3 * ; 3 4 * . * , 3 4 4 3 3 4 3 3 ; ; 3 ; * * * 2 , 4 3 = ; ; 4 ",
"M M N - n - * ; v N N v ; > * - v N m N N N N V N N m n * * * V N M M M M M n # @ @ * * - @ @ # # @ @ , , % v V N N N N V V * : ",
"B.B.M.x u.M N v k *.B.u.k ; v N u.B.B.M.B.B.(.(.B.B.B.u.k - V B.B.B.B.P.B.B.-.c c f - ; l c c c c c c c c J -.M.M.M.B.M.B.M.k * ",
"( ( ( ( ( B.B.u.C L ( ( K 2 K.M.( ( ( ( ( ( B.B.( ( ( ( L -  X( ( ( ( B.( ( ( ( ( L p 2 i.( L W W ( ( ( ( ( ( ( ( ( ( ( ( ( L * ",
"( ( ( ( ( ( ( ( M.( ( ( K 2 {.( ( ( ( ( ( ( ( ( ( ( ( ( L - XX( ( ( ( ( L ( ( ( ( ( J % i.( L ( ( ( ( ( ( ( ( ( ( ( ( ( ( ( L * ",
"( ( ( ( ( ( ( ( ( ( ( ( K 2 {.-.( ( L L ( ( ( ( ( ( ( ( L - XX( ( ( ( ( ( ( ( ( ( ( K 1 j L 8.( ( ( ( ( ( ( ( ( ( ( ( ( ( L y   ",
"( ( ( ( ( ( ( ( ( ( ( ( J , 2.( ( ( L ( ( ( ( ( ( 8.( L L - N.( ( ( ( ( ( ( ( ( ( ( K ; # L L ( ( ( ( ( ( ( ( ( ( ( ( ( ( L @ * ",
"( ( ( ( ( ( ( ( ( ( D S d ; p L L L L L ( ( L L L r L e K - j.L ( ( ( ( ( ( ( ( L e 4 ; x L ( ( ( ( ( ( ( ( ( ( ( ( L e 8.L c * ",
"L ( ( ( ( ( 8.8.( L f w , - , q r L L ,.,.,.8.L e # d @ i - 0 U ,.,.,.,.,.,.L r d , > - i L L ( ( L ( L L ( ( L L f e @ e L y * ",
"i i i y i i i i i i , ; * * - ; @ i a i i i i i ; - , * . * * 4 y y y y y y 3 , = * * * - 4 i i i i i i i i i i y , ; - , a * * ",
"n - z * * * n n n v v v v v # , , , , , , , - . - @ , @ @ n n v v v v v v v v v v v v v l - * - z v v v v v v v v v v v v v v v ",
"N.p v.p - l B.B.B.B.B.B.B.M.c f r h r r f 6 @ - k c f f h B.B.[.B.B.B.B.B.B.B.B.B.U.B.B.u.p ; l M.B.B.U.Q.B.M.B.B.B.B.B.B.B.(.B.",
"L L 8.( O J.( L L L L ( ( ( ( ( ( ( ( L h A b 1 j L L L ( ( ( B.( ( L L L L L ( ( B.8.L L K 2 K.n.L ( B.B.( ( L L L L ( ( ( B.( ",
"( ( ( ,.- K.( L ( ( ( ( ( ( ( ( ( ( ( W L *.*.2 k L ( ( ( ( ( ( ( ( ( ( ( ( ( ( ( L Z L ( L , K.-.( ( ( ( ( ( ( ( ( ( ( ( ( ( ( ",
"( ( ( ,.- K.( L ( ( ( ( ( ( ( ( ( ( ( ( B.( L 2 s.-.( ( ( ( ( ( ( ( ( ( ( ( ( ( ( L K h d J 2 K.-.( ( ( ( ( ( ( ( ( ( ( ( ( ( ( ",
"( ( ( ,.- K.( ( ( ( ( ( ( ( ( ( ( ( ( ( ( ( K 1 k L ( ( ( ( ( ( ( ( ( ( ( ( ( ( ( ( B.b 3 i ; K.( ( ( ( ( ( ( ( ( ( ( ( ( ( ( ( ",
"( L h p - s.( ( ( ( ( ( ( ( L h x L ( ( ( L x - - J ( ( ( ( ( ( ( ( ( ( ( ( ( ( ( ( W b 8 , ; b ( ( 8.L h h L ( ( ( ( ( ( ( ( ( ",
"h p , - * p L L Z L ( ( ( ( L x , p k L c f < - - J ( L c ( ( ( ( ( ( ( ( ( ( L c c p < , , - < K c c f # 5 e g L ( ( ( ( ( h L ",
", * * * * * p p < p p p p p k l , * - i < , - * - i p p , p p p p p p p p p p p < , * * * * * - i < , , - , , - i p p p p p < p "
};
