/* XPM */
static char *wall_east[] = {
/* columns rows colors chars-per-pixel */
"64 56 134 2 ",
"   c #000000",
".  c #0A0604",
"X  c #070807",
"o  c #0B0902",
"O  c #0A0B0A",
"+  c #150303",
"@  c #0F100F",
"#  c #16120A",
"$  c #1C1609",
"%  c #1F180A",
"&  c #131312",
"*  c #171817",
"=  c #1B1C1B",
"-  c #34040A",
";  c #261F0A",
":  c #1F201F",
">  c #2A220D",
",  c #31260E",
"<  c #32280D",
"1  c #382E0F",
"2  c #3B310F",
"3  c #2C2511",
"4  c #20201F",
"5  c #392F11",
"6  c #3E3310",
"7  c #232423",
"8  c #272827",
"9  c #282827",
"0  c #2D2D2D",
"q  c #2F302F",
"w  c #30302F",
"e  c #333433",
"r  c #373837",
"t  c #3B3C3B",
"y  c #6B040C",
"u  c #75060E",
"i  c #7F060D",
"p  c #443810",
"a  c #4A3E11",
"s  c #3F403F",
"d  c #574814",
"f  c #5C4D17",
"g  c #5C4B1A",
"h  c #615216",
"j  c #6C5B17",
"k  c #66551B",
"l  c #6C5A18",
"z  c #7A6617",
"x  c #77631A",
"c  c #7D691B",
"v  c #40403F",
"b  c #705E20",
"n  c #444443",
"m  c #474847",
"M  c #4C4D4C",
"N  c #4F504F",
"B  c #50504F",
"V  c #535453",
"C  c #575857",
"Z  c #5C5C5C",
"A  c #60605F",
"S  c #5F5F60",
"D  c #636363",
"F  c #676867",
"G  c #6C6C6C",
"H  c #6F706F",
"J  c #737473",
"K  c #7C7C7C",
"L  c #84050D",
"P  c #B70712",
"I  c #BC0511",
"U  c #CE0412",
"Y  c #D30411",
"T  c #D80412",
"R  c #EE0413",
"E  c #FF0012",
"W  c #816B1C",
"Q  c #87711C",
"!  c #8B751E",
"~  c #977D1C",
"^  c #987E1A",
"/  c #937B21",
"(  c #A1861F",
")  c #A58A1E",
"_  c #A98D1E",
"`  c #B3951F",
"'  c #A78821",
"]  c #AE9221",
"[  c #B49521",
"{  c #B79822",
"}  c #BB9C22",
"|  c #C4A11F",
" . c #C4A522",
".. c #C9A722",
"X. c #CFAC24",
"o. c #D1AE22",
"O. c #D6B224",
"+. c #DAB523",
"@. c #DFBA23",
"#. c #E0BB23",
"$. c #E5BE28",
"%. c #FED01F",
"&. c #E7C025",
"*. c #ECC523",
"=. c #F0C725",
"-. c #F4CB23",
";. c #FDCF21",
":. c #F5CB28",
">. c #FED021",
",. c #FBD029",
"<. c #80807F",
"1. c #838383",
"2. c #878887",
"3. c #8A8B8A",
"4. c #939393",
"5. c #979897",
"6. c #9B9C9B",
"7. c #9FA09F",
"8. c #A5A5A5",
"9. c #A8A7A8",
"0. c #ABABAB",
"q. c #AFB0AF",
"w. c #B4B4B4",
"e. c #BCBCBC",
"r. c #C3C3C3",
"t. c #CCCCCC",
"y. c #D3D4D3",
"u. c #DCDCDC",
"i. c #E3E3E3",
"p. c #EBEBEB",
"a. c #F3F3F3",
"s. c #F8F7F8",
"d. c #F7F8F8",
"f. c #FFFFFF",
/* pixels */
"                X                                                                                                               ",
"            H i.d.t.r                                                                                     = 8.u.r.N             ",
"          F f.f.f.f.p.7                                                                                 O u.f.f.f.s.V           ",
"          y.f.f.f.f.f.K                                       o o .                                     G f.f.f.f.f.t.          ",
"          i.f.f.f.f.f.4.                            < z [ @.:.,.,.:.#.{ W 1                             3.f.f.f.f.f.p.          ",
"    8 2.6.p.f.f.f.f.f.V                         h o.>.;.;.;.>.;.>.;.;.>.;.;.+.l .                       Z f.f.f.f.f.i.G Z O     ",
"  n a.f.f.f.f.f.f.f.0.                      2 O.;.>.>.>.;.>.>.>.>.>.>.>.>.>.;.;.+.d                       r.f.f.f.f.f.f.f.i.9   ",
"  t.f.f.f.f.f.f.f.f.u.7                   x -.%.;.>.>.>.>.>.>.>.>.>.>.>.>.>.;.>.>.,./                   * r.f.f.f.f.f.f.f.f.r.  ",
"X s.f.f.f.f.f.f.f.f.f.i.9               ( ;.&.( %.%.>.>.>.>.>.>.>.>.>.>.>.>.>.>.>.>.>.] O             = t.f.f.f.f.f.f.f.f.f.s.X ",
"  i.f.f.f.f.f.f.f.f.f.f.p.e           ! ;.*.6 W *.O.>.;.>.>.>.>.>.>.>.>.>.>.>.%.>.g } >.]           7 y.f.f.f.f.f.f.f.f.f.f.a.  ",
"  G f.f.f.f.u.a.f.f.f.f.f.p.t       h -.;.d j ,.k j -.[ >.>.>.>.>.>.>.>.>.>.{ ] >. .% #.>.Q       9 i.f.f.f.f.f.s.p.f.f.f.f.3.  ",
"    D t.i.8.= e p.f.f.f.f.f.a.M   > *.%.) 5 -.} > -.c h >.>.>.>.>.>.>.>.>.>...3 >.>.c j %.,.p   e p.f.f.f.f.f.d.V e t.f.a.4.X   ",
"                9 i.f.f.f.f.f.u.  [ >.%.| O.;.g _ >.' $.%.;.;.>.>.>.>.>.>.>.>., &.%.&.% :.>.O.  w.f.f.f.f.f.p.n       & X       ",
"                  4 u.f.f.f.f.J # ~ ( ^ ^ ^ ^ ~ ~ ~ ^ ^ ^ ^ ^ ^ ~ ~ ^ ^ ^ ~ ~ / ~ ~ ~ l ~ ( ^ 3 t f.f.f.f.p.r                   ",
"                    = y.f.f.a.@ u L L L L L L L L L L L L L L L L L L L L L L L i L L L i L L i + r.f.f.i.0                     ",
"                      & t.f.9.- E E E E E E E E E E E E E E E E E E E E E E E E E E E E E E E E y F f.u.7                       ",
"                        & e.S L E E E E E E E E E E E E E E E E E E E E E E E E E E E E E E E E I 4 t.=                         ",
"                          X * I E E E E E E E E E E E E E E E E E E E E E E E E E E E E E E E E R . @                           ",
"                              P T T T T T T T T Y Y T T Y Y Y Y Y Y Y Y Y U Y Y Y Y Y Y U U U U U +                             ",
"            X < < < < < < < < 1 < < < < < < < < < < < < < < < < < < < < < < < < < > < < < < < < < < < < < < < < < >             ",
"            ! ;.>.%.>.%.>.>.>.>.>.;.>.>.>.>.>.>.;.;.;.%.;.%.%.>.%.%.>.%.>.%.;.%.>.%.>.%.>.>.>.%.>.>.>.%.>.%.;.%.%.,.6           ",
"            k @.#.#.#.#.#.#.#.#.#.#.#.#.#.#.#.@.#.#.#.#.#.#.#.#.@.@.#.#.#.#.#.#.#.#.#.#.#.#.#.#.#.@.#.#.#.@.#.#.@.O.>           ",
"                              9 0 0 0 0 w 0 w w q q 0 0 0 q 0 0 0 0 0 0 q 0 0 q 0 0 q 0 0 0 0 0 0 X                             ",
"                              w.f.f.f.f.f.f.f.s.y.r.p.f.f.f.f.f.f.f.f.f.f.s.u.u.f.f.f.f.f.f.f.f.s.O                             ",
"                              K f.f.f.f.f.f.0.7     X G a.f.f.f.f.f.f.d.1.*     : 6.f.f.f.f.f.f.r.                              ",
"                              r f.f.f.f.f.0.            e a.f.f.f.f.f.Z             K f.f.f.f.f.K                               ",
"                                u.f.f.f.f.=               K f.f.f.f.w.                y.f.f.f.s.7                               ",
"                                K f.f.f.t.                = f.f.f.f.F                 2.f.f.f.w.                                ",
"                                * p.f.f.e.                  a.f.f.f.V                 J f.f.f.r                                 ",
"                                  K f.f.p.                4 f.f.f.f.J                 6.f.f.0.                                  ",
"                                  X y.f.f.V               1.f.f.f.f.r.              X p.f.p.=                                   ",
"                                    q a.f.i.=           t d.f.f.f.f.f.G             4.f.s.M                                     ",
"                                      M d.f.i.V     & J d.f.f.d.a.f.f.f.6.0     8 8.f.s.F                                       ",
"                                        M a.f.f.a.u.d.f.f.f.w.&   J f.f.f.f.d.a.f.f.d.A                                         ",
"                                          e y.f.f.f.f.f.f.f.J     7 f.f.f.f.f.f.f.u.t                                           ",
"                                            X J p.f.f.f.f.f.p.J F t.f.f.f.f.f.p.K O                                             ",
"                                          X X V @ Z q.p.f.f.f.f.f.f.f.f.p.w.Z @ e X O                                           ",
"                                        7 D A f.i.2.q X 8 M D G G D M 9 X e 1.u.s.7 3.*                                         ",
"                                      0 i.q e.f.f.f.2.2.r.6.1.M r 1.5.e.e i.f.f.f.K J t.=                                       ",
"                                    r p.p.  M u.f.f.Z w.f.f.f.0.K f.f.f.Z w.f.f.s.2.9 f.y.:                                     ",
"                                  m a.f.w.r 0.8 D t.0 i.f.f.f.0.1.f.f.f.2.3.p.4.q C & p.f.u.9                                   ",
"                                V d.f.f.4.F f.d.7.t   J q.y.a.9.K s.i.e.Z = 0 K u.f.m e.f.f.i.e                                 ",
"                              A s.f.f.f.K J f.f.f.u.0 6.F s 9 = * e m G 1.r f.f.f.f.G 6.f.f.f.p.r                               ",
"                            J f.f.f.f.f.F X G p.f.w.V f.f.f.f.0.K f.f.f.a.= f.f.f.0.= 3.f.f.f.f.a.m                             ",
"              0 e.a.u.G   1.f.f.f.f.f.f.D 4.H = 2.1.K f.f.f.f.0.K f.f.f.f.= p.w.r 7 V K f.f.f.f.f.a.M   J y.u.4.&               ",
"            = i.f.f.f.f.r.f.f.f.f.f.f.r.& 4.f.u.F O t 0.p.f.f.0.K f.f.a.e.= = e 7.d.4.8 u.f.f.f.f.f.s.e.f.f.f.f.e.              ",
"            J f.f.f.f.f.f.f.f.f.f.f.w.O   J f.f.f.p.6.V = 7 t e 9 m 8 * m 1.y.f.f.f.J   7 y.f.f.f.f.f.f.f.f.f.f.f.t             ",
"            2.f.f.f.f.f.f.f.f.f.f.8.      r f.f.f.f.f.f.f.p.t.r.e.t.i.f.f.f.f.f.f.f.t     = t.f.f.f.f.f.f.f.f.f.f.Z             ",
"            M f.f.f.f.f.f.f.f.f.4.        X i.f.f.f.f.f.f.f.f.f.f.f.f.f.f.f.f.f.f.p.X       & r.f.f.f.f.f.f.f.f.s.9             ",
"              0.f.f.f.f.f.f.f.s.r           1.f.f.f.f.f.f.f.f.f.f.f.f.f.f.f.f.f.f.3.          D f.f.f.f.f.f.f.f.3.              ",
"                V 3.0.f.f.f.f.f.t.          & i.f.f.f.f.f.f.f.f.f.f.f.f.f.f.f.f.p.*         O a.f.f.f.f.f.0.6.N                 ",
"                    J f.f.f.f.f.f.X           r a.f.f.f.f.f.f.f.f.f.f.f.f.f.f.d.m           r f.f.f.f.f.f.t                     ",
"                    Z f.f.f.f.f.p.              r i.f.f.f.f.f.f.f.f.f.f.f.f.p.m             8 f.f.f.f.f.f.0                     ",
"                    O u.f.f.f.f.K                 & <.p.f.f.f.f.f.f.f.f.p.3.*                 w.f.f.f.f.e.                      ",
"                      7 q.d.u.J                         e G 3.6.6.3.G t X                     & 8.d.d.9.&                       ",
"                                                                                                                                "
};
